<?xml version="1.0" standalone="no"?>
<!DOCTYPE svg PUBLIC "-//W3C//DTD SVG 20010904//EN"
 "http://www.w3.org/TR/2001/REC-SVG-20010904/DTD/svg10.dtd">
<svg version="1.0" xmlns="http://www.w3.org/2000/svg"
 width="2612.000000pt" height="1632.000000pt" viewBox="0 0 2612.000000 1632.000000"
 preserveAspectRatio="xMidYMid meet">

<g transform="translate(0.000000,1632.000000) scale(0.100000,-0.100000)"
fill="#000000" stroke="none">
<path d="M0 8160 l0 -8160 13060 0 13060 0 0 8160 0 8160 -13060 0 -13060 0 0
-8160z m17390 6419 c155 -19 325 -58 490 -111 52 -17 100 -34 105 -38 6 -4 46
-22 90 -40 206 -84 451 -239 632 -398 48 -43 98 -87 111 -98 37 -31 203 -222
271 -312 228 -302 414 -746 475 -1132 37 -238 37 -298 34 -4320 -3 -3676 -5
-3933 -21 -4055 -10 -71 -20 -137 -22 -145 -3 -8 -7 -33 -10 -55 -10 -64 -82
-318 -121 -423 -46 -124 -163 -350 -247 -478 -64 -97 -130 -181 -108 -138 6
12 7 25 3 29 -4 5 -2 5 5 1 13 -7 39 31 29 42 -3 3 -6 0 -6 -7 0 -7 -4 -10 -9
-6 -12 7 -42 -35 -34 -48 3 -6 1 -7 -5 -4 -5 4 -30 -17 -54 -45 -64 -78 -97
-116 -155 -179 -29 -30 -50 -59 -45 -63 4 -4 2 -6 -4 -4 -6 2 -64 -43 -130
-99 -175 -150 -340 -261 -537 -359 -99 -50 -297 -130 -394 -159 -35 -10 -63
-21 -63 -25 0 -7 119 20 150 33 8 4 24 8 35 10 21 4 121 47 168 72 16 8 33 13
38 9 5 -3 9 0 9 5 0 6 7 11 16 11 8 0 22 7 31 15 8 8 19 13 24 10 5 -4 9 -2 9
2 0 5 10 9 21 10 21 2 21 1 3 -12 -11 -8 -22 -15 -26 -15 -4 0 -47 -18 -95
-41 -111 -52 -213 -90 -223 -84 -5 3 -10 0 -12 -5 -2 -6 -15 -12 -29 -14 -13
-1 -29 -5 -34 -8 -42 -24 -335 -84 -478 -98 -69 -6 -934 -10 -2360 -10 -2861
-1 -3014 0 -2914 13 42 5 77 13 77 18 0 5 -96 9 -212 9 -117 -1 -800 1 -1518
4 -1414 5 -1421 5 -1659 62 -109 26 -280 81 -296 95 -5 5 -17 9 -27 9 -10 0
-18 5 -18 12 0 6 -3 9 -6 5 -8 -7 -64 13 -64 23 0 4 7 10 15 14 8 3 14 2 14
-2 -3 -19 2 -25 11 -12 6 10 10 11 10 3 0 -7 8 -13 18 -13 14 0 15 2 2 10 -8
5 -10 10 -5 10 6 0 3 4 -5 10 -11 7 -9 11 12 19 14 5 29 15 33 21 6 9 2 9 -14
1 -17 -9 -21 -9 -19 1 2 7 -4 12 -13 12 -11 -1 -15 4 -11 18 4 18 5 18 19 -2
19 -27 29 -25 49 9 11 19 23 27 32 23 12 -4 9 -8 -9 -15 -20 -8 -21 -11 -6
-14 9 -3 15 -8 12 -13 -3 -5 -12 -7 -20 -3 -11 4 -13 1 -9 -11 3 -9 10 -13 15
-10 5 3 9 0 9 -5 0 -6 5 -11 11 -11 5 0 9 8 8 18 -4 26 11 63 22 56 6 -3 5 3
-3 15 -7 12 -17 22 -23 22 -5 1 -17 2 -25 3 -8 1 -22 -3 -30 -9 -13 -9 -13 -8
-1 7 7 10 18 15 24 11 5 -3 17 3 25 13 14 19 15 18 8 -1 -6 -17 -4 -17 15 4
17 18 24 21 28 10 6 -20 28 -39 35 -32 3 4 6 1 6 -7 0 -10 3 -10 15 0 22 18
18 32 -7 25 -18 -5 -20 -4 -8 4 12 9 11 11 -8 11 -13 0 -21 4 -17 9 3 6 -3 8
-14 6 -12 -2 -21 3 -24 16 -6 21 -37 27 -37 6 0 -7 -9 -18 -19 -24 -16 -10
-20 -9 -25 3 -3 9 -1 14 7 12 7 -2 14 2 16 7 2 6 9 15 15 20 6 6 10 9 8 8 -11
-5 -295 147 -383 205 -546 360 -917 959 -983 1587 -24 231 -26 270 -28 1050
-2 688 -9 1068 -17 955 -2 -25 -3 -53 -2 -62 1 -10 -4 -18 -13 -18 -8 0 -16
-5 -18 -11 -2 -7 -10 -10 -16 -8 -9 3 -7 11 7 26 20 21 20 22 2 20 -13 -1 -17
-6 -13 -17 5 -13 3 -13 -11 -1 -9 7 -15 17 -12 21 3 4 -3 7 -13 6 -22 -1 -32
-26 -20 -50 7 -12 6 -22 -3 -30 -9 -8 -10 -8 -5 1 3 6 0 18 -8 26 -9 9 -12 23
-9 37 l6 23 -21 -21 c-24 -24 -29 -38 -10 -26 7 4 8 3 4 -5 -6 -8 -12 -9 -20
-2 -17 14 -29 1 -15 -15 11 -14 4 -34 -11 -34 -5 0 -7 7 -4 15 7 18 -11 20
-22 3 -4 -6 -3 -8 4 -5 6 5 8 0 5 -13 -8 -29 -19 -32 -21 -7 -5 57 -9 77 -15
84 -4 3 -7 -88 -7 -203 0 -115 -3 -513 -5 -884 -3 -397 -1 -706 5 -750 43
-341 60 -430 122 -620 55 -170 118 -313 201 -455 184 -313 440 -603 677 -765
12 -8 36 -27 54 -42 17 -15 39 -30 48 -34 10 -3 18 -10 18 -15 0 -5 5 -9 10
-9 6 0 34 -15 63 -33 29 -18 67 -40 85 -48 30 -13 43 -29 23 -29 -13 0 -78 29
-66 30 5 0 -27 19 -70 41 -44 23 -84 48 -88 55 -4 8 -15 14 -24 14 -11 0 -4
-9 18 -24 85 -61 104 -88 27 -40 -125 79 -312 236 -446 376 -328 342 -564 793
-653 1250 -56 290 -53 127 -55 2493 -1 1199 2 2162 6 2140 5 -22 9 -79 9 -127
1 -49 5 -88 11 -88 5 0 9 347 10 927 0 510 -1 925 -4 922 -4 -4 -19 -409 -20
-546 -1 -135 -15 -74 -18 80 -7 316 -5 2378 2 2517 12 234 46 421 116 647 31
98 82 229 83 212 1 -3 -15 -55 -35 -115 -64 -197 -138 -533 -120 -551 6 -6 7
0 31 132 71 391 223 737 469 1070 195 262 514 535 826 704 52 29 101 57 110
64 15 13 52 31 83 41 9 3 17 10 17 17 0 6 -8 9 -17 5 -15 -5 -15 -4 1 9 11 8
24 15 29 15 5 0 23 6 40 14 119 51 249 88 412 116 39 7 86 17 105 23 53 17
1733 23 5320 20 2133 -2 3172 -7 3230 -14z m-10469 -1486 c-12 -20 -14 -14 -5
12 4 9 9 14 11 11 3 -2 0 -13 -6 -23z m-216 -3613 c3 -5 1 -10 -4 -10 -6 0
-11 5 -11 10 0 6 2 10 4 10 3 0 8 -4 11 -10z m295 -3484 c0 -2 -8 -10 -17 -17
-16 -13 -17 -12 -4 4 13 16 21 21 21 13z m-120 -10 c0 -2 -7 -7 -16 -10 -8 -3
-12 -2 -9 4 6 10 25 14 25 6z m12180 -3180 c0 -2 -7 -9 -15 -16 -13 -11 -14
-10 -9 4 5 14 24 23 24 12z m-89 -109 c-13 -12 -20 -15 -15 -7 12 22 28 39 33
34 3 -3 -6 -15 -18 -27z m-49 -54 c-23 -32 -136 -141 -231 -223 -140 -121
-442 -320 -485 -320 -12 0 2 13 38 35 32 19 60 35 62 35 2 0 31 18 65 40 34
22 68 40 76 40 8 0 11 5 7 12 -4 6 -3 8 4 4 6 -3 17 1 25 9 9 8 21 15 27 15 6
0 8 5 5 10 -3 6 1 10 10 10 9 0 13 5 10 10 -3 6 3 10 14 10 12 0 21 7 21 16 0
8 4 13 8 10 5 -3 15 4 22 15 8 10 20 19 28 19 16 0 42 24 42 39 0 6 6 10 13 8
6 -1 11 4 10 10 -2 7 3 12 10 10 6 -1 11 3 10 10 -2 7 3 10 10 7 7 -2 24 7 37
21 13 14 19 25 14 25 -5 0 2 6 16 13 14 8 24 19 22 26 -1 7 2 10 8 6 5 -3 33
19 62 49 58 62 69 70 40 29z m-10472 -379 c0 -8 -5 -12 -10 -9 -6 4 -8 11 -5
16 9 14 15 11 15 -7z m-473 -104 c28 -16 55 -35 59 -42 7 -11 -62 26 -111 59
-36 25 0 13 52 -17z m118 -28 c-3 -3 -11 0 -18 7 -9 10 -8 11 6 5 10 -3 15 -9
12 -12z m60 -8 c8 3 15 1 15 -5 0 -6 5 -7 10 -4 6 3 10 2 10 -3 0 -14 40 -22
41 -9 0 7 5 1 10 -13 8 -20 12 -22 19 -10 8 12 10 10 10 -7 0 -20 -3 -22 -27
-12 -59 22 -133 62 -133 71 0 6 6 5 15 -2 8 -7 22 -10 30 -6z m-80 -24 c3 -6
-1 -7 -9 -4 -18 7 -21 14 -7 14 6 0 13 -4 16 -10z m60 -27 c19 -9 35 -20 35
-25 0 -6 -65 25 -79 38 -10 9 10 3 44 -13z m79 -52 c-2 -3 -12 3 -22 13 -16
17 -16 18 5 5 12 -7 20 -15 17 -18z m380 -130 c4 -5 -3 -7 -14 -4 -23 6 -26
13 -6 13 8 0 17 -4 20 -9z m3323 -87 c-3 -3 -12 -4 -19 -1 -8 3 -5 6 6 6 11 1
17 -2 13 -5z m13127 -270 c32 -86 71 -150 134 -217 69 -71 136 -116 230 -153
93 -36 95 -53 10 -84 -178 -64 -333 -224 -382 -395 -17 -59 -44 -55 -66 10
-60 177 -206 330 -364 381 -105 34 -108 52 -11 84 82 27 166 82 235 154 74 76
105 132 155 274 11 30 38 5 59 -54z"/>
<path d="M9394 14518 c-4 -7 -4 -10 0 -6 4 3 21 2 37 -2 16 -5 29 -5 29 0 0 4
-10 10 -22 14 -32 8 -36 8 -44 -6z"/>
<path d="M9476 14521 c-3 -5 23 -8 58 -7 35 0 62 -2 60 -6 -2 -4 0 -10 6 -13
7 -4 7 -12 2 -18 -10 -14 -10 -47 1 -64 6 -9 3 -11 -8 -6 -11 4 -15 14 -12 29
3 16 0 24 -9 24 -8 0 -14 -6 -14 -14 0 -8 -7 -16 -15 -20 -8 -3 -15 -1 -15 4
0 6 -5 10 -10 10 -7 0 -7 -6 0 -19 13 -25 13 -41 0 -21 -9 13 -12 13 -21 -3
-7 -13 -17 -15 -37 -10 -24 6 -26 5 -13 -10 7 -9 18 -14 24 -10 6 3 7 1 3 -5
-3 -6 2 -15 11 -21 10 -5 15 -13 11 -17 -4 -4 -14 -1 -23 6 -13 11 -14 10 -9
-3 3 -10 16 -16 29 -15 13 1 21 6 19 10 -3 4 5 8 17 8 18 0 19 -2 9 -15 -7 -8
-19 -15 -27 -15 -8 0 -12 -4 -9 -8 6 -10 -55 -9 -71 1 -8 5 -13 3 -13 -3 0
-22 -35 -5 -36 17 -2 28 22 38 35 15 7 -11 11 -12 11 -4 0 7 4 11 9 8 5 -3 11
3 14 14 3 13 -1 24 -14 30 -13 7 -19 7 -19 1 0 -6 -8 -8 -17 -4 -16 5 -16 4 1
-9 18 -14 18 -15 0 -15 -11 0 -26 8 -35 19 -17 19 -35 25 -24 9 3 -6 -2 -14
-11 -19 -11 -6 -13 -11 -5 -16 6 -4 11 -2 11 3 0 18 14 12 29 -10 11 -20 11
-21 -4 -15 -13 4 -16 2 -12 -9 4 -8 3 -16 -1 -19 -8 -5 -33 20 -26 27 2 2 -1
9 -8 15 -11 8 -13 3 -13 -26 l0 -37 128 -2 c99 -2 126 0 121 10 -6 9 -5 9 7 0
18 -15 1209 -17 1209 -2 0 9 -14 13 -37 10 -7 -1 -13 3 -13 9 0 5 4 9 9 7 5
-1 17 7 26 18 9 11 13 14 9 6 -5 -10 -3 -13 9 -8 9 3 18 0 21 -9 4 -11 10 -12
30 -2 14 6 23 16 19 22 -4 8 -3 8 6 0 29 -26 -22 -57 -54 -33 -7 5 -11 1 -12
-10 -1 -16 15 -18 213 -20 129 -1 214 1 214 7 0 5 -7 15 -16 22 -12 11 -15 11
-12 -1 2 -8 -2 -13 -9 -12 -6 2 -25 4 -42 5 -16 1 -27 6 -25 10 3 4 0 8 -5 8
-6 0 -11 8 -11 18 0 12 3 13 8 5 9 -14 52 -6 52 9 0 5 -4 6 -10 3 -16 -10 -11
1 7 16 15 13 16 11 10 -21 -6 -29 -5 -32 6 -19 6 9 20 15 30 13 26 -4 20 8
-16 35 -17 13 -23 20 -13 17 11 -4 22 -2 26 4 4 6 14 8 23 4 9 -3 15 -10 12
-14 -6 -10 23 -35 32 -26 3 3 1 6 -6 6 -7 0 -10 4 -7 9 3 5 -1 14 -9 21 -7 6
-11 18 -8 25 3 10 -1 13 -16 10 -12 -2 -25 -6 -29 -9 -4 -2 -9 5 -9 17 -2 17
0 19 7 7 7 -11 10 -11 10 -2 0 7 5 10 10 7 6 -3 10 2 11 12 0 16 1 16 9 -2 8
-17 9 -16 9 9 1 25 -1 27 -15 15 -9 -7 -23 -14 -32 -15 -8 -2 -18 -8 -22 -14
-5 -7 -17 -9 -31 -5 -14 3 -19 3 -12 -2 8 -6 9 -14 3 -23 -6 -8 -10 -11 -10
-6 0 5 -9 1 -19 -8 -11 -10 -18 -26 -16 -37 2 -11 0 -17 -6 -14 -5 4 -7 11 -4
16 4 5 2 9 -4 9 -5 0 -13 -5 -16 -10 -4 -6 -11 -8 -16 -5 -5 4 -9 2 -9 -3 0
-5 -8 -9 -17 -9 -43 0 -46 -2 -39 -33 3 -17 1 -30 -4 -30 -6 0 -10 12 -10 26
0 14 -4 22 -10 19 -6 -3 -7 1 -4 9 3 9 12 16 18 16 7 0 13 7 13 15 0 13 -4 12
-21 -2 -40 -34 -45 -46 -27 -60 13 -10 14 -12 1 -13 -8 0 -25 -3 -38 -6 -18
-5 -21 -3 -16 10 4 9 9 14 12 12 5 -6 31 24 32 36 0 4 -7 4 -17 1 -10 -4 -14
-2 -10 4 11 18 -20 38 -37 24 -10 -8 -16 -9 -21 -1 -3 5 1 13 9 16 9 3 13 11
9 18 -4 6 1 5 10 -2 9 -8 22 -10 28 -6 9 5 10 2 6 -9 -4 -11 1 -21 14 -28 19
-10 20 -9 14 13 -7 20 -6 21 8 10 23 -20 66 24 65 67 -1 16 -5 28 -10 25 -4
-3 -5 -16 -2 -30 5 -19 2 -24 -14 -24 -11 0 -23 -6 -25 -12 -3 -8 -6 -6 -6 4
-1 14 -7 16 -30 12 -19 -4 -30 -1 -34 8 -3 8 1 15 9 15 7 0 11 -4 8 -9 -3 -4
1 -5 9 -2 22 8 17 36 -5 31 -15 -4 -17 -3 -8 8 9 11 7 12 -9 8 -12 -3 -19 -9
-16 -13 3 -4 -2 -13 -9 -19 -11 -10 -19 -7 -35 10 -21 23 -68 38 -56 19 3 -5
3 -15 -1 -21 -9 -16 -23 8 -17 30 3 14 17 17 71 18 37 0 69 4 72 9 7 12 -1397
16 -1404 5z m1030 -24 c3 -24 -8 -28 -31 -10 -19 15 -19 15 -1 9 16 -5 17 -4
7 8 -10 12 -9 14 5 12 10 -2 18 -10 20 -19z m-689 7 c-3 -3 -12 -4 -19 -1 -8
3 -5 6 6 6 11 1 17 -2 13 -5z m48 -4 c3 -6 -1 -7 -9 -4 -18 7 -21 14 -7 14 6
0 13 -4 16 -10z m129 -6 c3 -8 2 -12 -4 -9 -6 3 -10 10 -10 16 0 14 7 11 14
-7z m331 -5 c-1 -9 -8 -23 -17 -32 -13 -14 -16 -14 -30 2 -11 13 -12 21 -4 34
14 21 53 19 51 -4z m28 1 c3 -11 1 -20 -4 -20 -5 0 -9 9 -9 20 0 11 2 20 4 20
2 0 6 -9 9 -20z m32 11 c3 -5 1 -12 -4 -15 -5 -3 -11 1 -15 9 -6 16 9 21 19 6z
m161 -8 c-5 -16 -4 -16 7 -3 16 20 34 22 34 4 0 -8 -6 -13 -13 -10 -8 3 -16 1
-19 -4 -8 -13 -32 -2 -32 15 0 8 7 15 15 15 9 0 12 -6 8 -17z m79 7 c3 -6 -1
-7 -9 -4 -18 7 -21 14 -7 14 6 0 13 -4 16 -10z m105 0 c-1 -16 -19 -30 -33
-24 -27 10 -21 34 8 32 14 -1 25 -5 25 -8z m-790 -10 c0 -5 -5 -10 -11 -10 -5
0 -7 5 -4 10 3 6 8 10 11 10 2 0 4 -4 4 -10z m730 -10 c0 -5 -5 -10 -11 -10
-5 0 -7 5 -4 10 3 6 8 10 11 10 2 0 4 -4 4 -10z m124 -8 c3 -5 -1 -9 -9 -9 -8
0 -12 4 -9 9 3 4 7 8 9 8 2 0 6 -4 9 -8z m-364 -12 c0 -5 -2 -10 -4 -10 -3 0
-8 5 -11 10 -3 6 -1 10 4 10 6 0 11 -4 11 -10z m-750 -10 c0 -5 -5 -10 -11
-10 -5 0 -7 5 -4 10 3 6 8 10 11 10 2 0 4 -4 4 -10z m573 -5 c4 -8 2 -17 -4
-20 -5 -4 -8 -1 -7 7 2 8 -5 12 -17 10 -16 -2 -17 -1 -5 7 20 14 27 14 33 -4z
m268 5 c14 8 19 7 19 -3 0 -17 -43 -15 -46 2 -1 6 0 7 3 1 3 -7 11 -7 24 0z
m59 0 c0 -5 -2 -10 -4 -10 -3 0 -8 5 -11 10 -3 6 -1 10 4 10 6 0 11 -4 11 -10z
m136 -3 c4 -4 2 -7 -5 -7 -7 0 -9 -6 -6 -12 4 -7 1 -6 -7 3 -7 9 -20 19 -28
22 -8 3 -3 5 12 4 15 -2 30 -6 34 -10z m-585 -30 c-10 -9 -11 -8 -5 6 3 10 9
15 12 12 3 -3 0 -11 -7 -18z m369 -24 c0 -2 -4 -1 -10 2 -5 3 -10 1 -10 -4 0
-6 9 -11 20 -11 11 0 20 5 20 10 0 7 7 7 21 0 19 -11 20 -13 4 -30 -14 -16
-21 -17 -39 -7 -27 16 -37 29 -31 45 2 6 0 12 -5 12 -5 0 -11 -8 -13 -17 -3
-10 -5 -3 -6 14 l-1 33 25 -22 c14 -12 25 -23 25 -25z m334 38 c3 -5 -3 -11
-15 -14 -16 -4 -18 -3 -8 9 13 16 16 17 23 5z m306 -36 c-7 -8 -17 -15 -22
-15 -11 0 14 29 26 30 5 0 3 -7 -4 -15z m-537 -31 c3 -19 0 -24 -17 -23 -11 0
-15 3 -8 6 6 2 12 11 12 19 0 9 -4 12 -10 9 -5 -3 -10 1 -10 9 0 24 27 8 33
-20z m113 24 c4 -5 -2 -8 -14 -8 -12 0 -22 -4 -22 -10 0 -5 -7 -7 -15 -4 -26
10 -16 29 14 29 16 0 33 -3 37 -7z m89 -31 c1 -15 -3 -27 -8 -27 -5 0 -6 11
-3 24 3 13 1 27 -4 29 -6 3 -5 4 2 3 7 -2 13 -15 13 -29z m-1185 7 c0 -2 -7
-4 -15 -4 -8 0 -15 4 -15 10 0 5 7 7 15 4 8 -4 15 -8 15 -10z m691 -7 c-10 -9
-11 -8 -5 6 3 10 9 15 12 12 3 -3 0 -11 -7 -18z m116 17 c-3 -3 -12 -4 -19 -1
-8 3 -5 6 6 6 11 1 17 -2 13 -5z m-911 -22 c1 -7 0 -8 -3 -2 -2 5 -9 8 -14 4
-5 -3 -9 0 -9 6 0 15 23 7 26 -8z m927 -6 c4 -10 1 -13 -8 -9 -8 3 -12 9 -9
14 7 12 11 11 17 -5z m577 -36 c0 -13 5 -17 15 -14 8 4 15 2 15 -4 0 -5 -9
-12 -20 -15 -10 -3 -19 -2 -18 2 0 3 0 8 -2 11 -8 22 -8 50 0 45 5 -3 10 -15
10 -25z m-1453 -2 c-3 -8 -6 -5 -6 6 -1 11 2 17 5 13 3 -3 4 -12 1 -19z m1429
-14 c3 -27 3 -27 -12 -5 -8 11 -12 26 -9 32 10 15 18 4 21 -27z m-344 -4 c6 0
8 -3 5 -6 -4 -4 -14 -1 -23 7 -10 8 -19 13 -21 12 -1 -2 -9 -3 -15 -2 -7 1 -2
4 12 8 17 5 26 3 28 -6 2 -7 8 -13 14 -13z m-92 -3 c18 -4 15 -5 -10 -4 -43 1
-56 7 -39 18 7 4 16 4 19 -1 3 -4 16 -10 30 -13z m144 -6 c-2 -3 -12 3 -22 13
-16 17 -16 18 5 5 12 -7 20 -15 17 -18z m376 19 c0 -5 -5 -10 -11 -10 -5 0 -7
5 -4 10 3 6 8 10 11 10 2 0 4 -4 4 -10z"/>
<path d="M10515 14371 c-9 -16 9 -20 23 -5 10 12 10 14 -2 14 -8 0 -17 -4 -21
-9z"/>
<path d="M10916 14518 c3 -4 9 -8 15 -8 5 0 9 4 9 8 0 5 -7 9 -15 9 -8 0 -12
-4 -9 -9z"/>
<path d="M10950 14519 c0 -13 24 -17 43 -7 12 6 17 5 17 -6 0 -8 5 -18 12 -22
6 -4 8 -3 4 4 -3 6 -2 13 4 17 22 13 8 22 -35 22 -25 0 -45 -3 -45 -8z"/>
<path d="M11056 14521 c-3 -4 6 -6 19 -3 14 2 25 6 25 8 0 8 -39 4 -44 -5z"/>
<path d="M11106 14514 c-4 -11 -2 -15 8 -11 8 3 17 1 20 -6 2 -7 5 -6 5 4 1
11 9 14 31 11 17 -2 30 0 30 5 0 5 -20 10 -44 12 -33 1 -45 -2 -50 -15z"/>
<path d="M11225 14520 c26 -11 55 -12 55 -2 0 5 -17 9 -37 10 -30 0 -34 -2
-18 -8z"/>
<path d="M11298 14523 c7 -3 16 -2 19 1 4 3 -2 6 -13 5 -11 0 -14 -3 -6 -6z"/>
<path d="M9535 14500 c-3 -5 -1 -10 4 -10 6 0 11 5 11 10 0 6 -2 10 -4 10 -3
0 -8 -4 -11 -10z"/>
<path d="M9500 14480 c0 -5 5 -10 11 -10 5 0 7 5 4 10 -3 6 -8 10 -11 10 -2 0
-4 -4 -4 -10z"/>
<path d="M11040 14469 c0 -5 -4 -7 -10 -4 -15 9 -12 -11 3 -23 10 -8 13 -5 15
14 1 13 0 24 -3 24 -3 0 -5 -5 -5 -11z"/>
<path d="M11093 14461 c-1 -14 3 -17 18 -14 25 7 33 20 18 29 -8 4 -9 3 -5 -4
9 -15 -6 -16 -20 -2 -6 6 -10 3 -11 -9z"/>
<path d="M11280 14470 c0 -5 5 -10 11 -10 5 0 7 5 4 10 -3 6 -8 10 -11 10 -2
0 -4 -4 -4 -10z"/>
<path d="M10933 14453 c9 -2 15 -8 13 -12 -3 -4 1 -8 9 -8 11 0 12 4 4 14 -6
7 -19 12 -28 12 -13 -1 -13 -2 2 -6z"/>
<path d="M11060 14449 c0 -5 5 -7 10 -4 6 3 10 8 10 11 0 2 -4 4 -10 4 -5 0
-10 -5 -10 -11z"/>
<path d="M9420 14430 c-9 -6 -10 -10 -3 -10 6 0 15 5 18 10 8 12 4 12 -15 0z"/>
<path d="M9328 14423 c7 -3 16 -2 19 1 4 3 -2 6 -13 5 -11 0 -14 -3 -6 -6z"/>
<path d="M11004 14414 c3 -8 2 -12 -3 -9 -5 3 -12 1 -16 -5 -3 -5 -1 -10 5
-10 6 0 19 -7 28 -16 10 -11 17 -13 20 -5 2 6 8 11 13 11 11 0 49 32 49 42 0
5 -9 8 -21 8 -11 0 -18 -3 -16 -7 3 -5 -6 -8 -19 -8 -13 0 -24 3 -24 8 0 4 -5
7 -11 7 -6 0 -8 -7 -5 -16z"/>
<path d="M11276 14415 c7 -17 -16 -17 -28 0 -5 6 -8 3 -8 -6 0 -21 58 -84 68
-75 4 4 -1 12 -11 17 -9 6 -17 15 -17 21 0 6 3 8 6 5 4 -3 15 -2 25 3 12 7 20
7 24 0 4 -6 12 -7 18 -3 7 4 6 -1 -2 -10 -12 -15 -12 -17 2 -11 18 7 28 27 19
40 -10 13 -35 17 -27 4 11 -17 -13 -11 -27 8 -17 23 -50 29 -42 7z"/>
<path d="M9385 14410 c3 -5 8 -10 11 -10 2 0 4 5 4 10 0 6 -5 10 -11 10 -5 0
-7 -4 -4 -10z"/>
<path d="M11394 14385 c3 -10 1 -24 -5 -31 -9 -11 -9 -14 0 -14 7 0 9 -6 5
-12 -5 -9 -4 -10 4 -3 17 16 19 67 3 73 -10 3 -12 0 -7 -13z"/>
<path d="M11321 14304 c0 -11 3 -14 6 -6 3 7 2 16 -1 19 -3 4 -6 -2 -5 -13z"/>
<path d="M11120 14300 c0 -5 5 -10 10 -10 6 0 10 5 10 10 0 6 -4 10 -10 10 -5
0 -10 -4 -10 -10z"/>
<path d="M11270 14300 c-13 -9 -13 -10 0 -10 13 0 13 -2 1 -9 -8 -5 -20 -7
-28 -4 -7 3 -13 0 -13 -6 0 -15 37 -14 47 2 7 11 14 37 10 37 -1 0 -9 -5 -17
-10z"/>
<path d="M11301 14274 c0 -11 3 -14 6 -6 3 7 2 16 -1 19 -3 4 -6 -2 -5 -13z"/>
<path d="M11380 14273 c0 -8 5 -13 12 -11 18 6 21 25 3 25 -8 0 -15 -7 -15
-14z"/>
<path d="M9250 14276 c0 -2 9 -6 20 -9 11 -3 20 -1 20 4 0 5 -9 9 -20 9 -11 0
-20 -2 -20 -4z"/>
<path d="M11320 14270 c0 -5 5 -10 10 -10 6 0 10 5 10 10 0 6 -4 10 -10 10 -5
0 -10 -4 -10 -10z"/>
<path d="M10936 14230 c-152 -6 -200 -11 -207 -21 -6 -9 -12 -10 -16 -4 -10
12 -43 16 -43 5 0 -5 6 -10 13 -13 6 -2 -322 -8 -730 -12 -407 -4 -746 -5
-751 -1 -29 17 -443 -36 -537 -70 -22 -7 -51 -16 -65 -18 -69 -11 -326 -124
-456 -201 -177 -105 -423 -318 -556 -484 -276 -342 -434 -734 -478 -1186 -15
-155 -15 -7848 0 -8025 40 -468 218 -891 522 -1245 176 -204 432 -406 664
-523 169 -85 404 -162 639 -209 86 -17 288 -18 4200 -18 l4110 0 130 23 c599
109 1060 401 1416 897 116 161 188 298 263 498 37 99 105 340 107 380 1 17 2
18 6 4 2 -9 9 -14 15 -11 5 4 4 -4 -3 -17 -7 -13 -12 -34 -10 -46 1 -11 -3
-24 -8 -28 -6 -3 -11 -25 -11 -48 1 -34 3 -39 11 -24 6 10 8 24 5 32 -3 8 -2
15 2 17 14 6 52 233 59 348 6 109 5 114 -11 97 -14 -13 -17 -30 -14 -72 1 -31
-1 -57 -7 -59 -6 -2 -5 -9 3 -17 15 -16 16 -33 0 -23 -8 5 -9 2 -5 -10 4 -9 3
-15 -2 -12 -4 3 -9 1353 -10 3000 -2 2860 -1 2994 15 2992 14 -2 19 -14 21
-46 10 -146 13 37 13 740 0 436 -2 791 -4 789 -3 -4 -16 -90 -19 -131 -1 -12
-5 -14 -12 -7 -6 6 -12 159 -16 422 -5 401 -6 416 -33 541 -91 427 -251 757
-506 1044 -51 57 -90 106 -87 109 10 9 42 -15 91 -67 26 -28 50 -49 53 -47 2
3 -44 55 -103 117 -183 189 -363 319 -609 440 -231 114 -458 177 -725 199
-140 12 -5979 12 -6324 1z m2761 -36 c-3 -3 -12 -4 -19 -1 -8 3 -5 6 6 6 11 1
17 -2 13 -5z m191 -1 c-21 -2 -57 -2 -80 0 -24 2 -7 4 37 4 44 0 63 -2 43 -4z
m460 0 c-75 -2 -201 -2 -280 0 -79 1 -17 3 137 3 154 0 218 -2 143 -3z m199 1
c-3 -3 -12 -4 -19 -1 -8 3 -5 6 6 6 11 1 17 -2 13 -5z m-4557 -982 c199 -48
430 -127 430 -147 0 -2 -12 0 -26 5 -42 16 -174 11 -264 -10 -303 -73 -523
-235 -673 -495 -87 -149 -128 -282 -148 -470 -31 -301 56 -711 232 -1083 35
-75 44 -102 31 -96 -9 5 -55 9 -102 9 l-85 0 0 -1585 c0 -1772 -4 -1675 71
-1949 91 -332 226 -565 463 -801 103 -103 270 -239 352 -287 16 -10 29 -21 29
-25 0 -4 -35 -49 -79 -100 -90 -107 -105 -131 -96 -158 3 -11 133 -128 288
-262 155 -133 345 -296 422 -363 245 -211 423 -355 438 -355 23 0 537 611 537
637 0 8 -11 25 -24 38 -18 18 -20 25 -10 29 8 3 13 2 11 -2 -1 -4 3 -9 8 -10
64 -22 43 -80 -75 -212 -37 -41 -99 -115 -138 -163 -177 -218 -302 -357 -319
-357 -17 0 -243 184 -599 488 -79 68 -149 120 -154 117 -6 -4 -9 -1 -8 5 2 7
-49 57 -112 112 -63 55 -156 140 -206 189 -110 108 -107 108 -209 -18 -39 -47
-137 -165 -219 -262 -174 -205 -206 -252 -206 -298 0 -67 25 -95 260 -290 80
-66 240 -202 355 -302 231 -201 382 -326 440 -365 48 -33 85 -33 124 -1 66 56
471 543 471 568 0 9 5 17 10 17 19 0 10 -33 -22 -74 -69 -89 -145 -183 -179
-221 -20 -22 -72 -83 -114 -135 -105 -128 -175 -197 -208 -205 -47 -12 -108
20 -233 123 -173 141 -172 141 -194 135 -11 -3 -20 -1 -20 5 0 5 -7 13 -16 16
-8 3 -12 2 -9 -4 4 -6 -7 -8 -25 -6 -17 2 -28 1 -25 -2 3 -3 -5 -13 -17 -21
-25 -18 -33 -51 -12 -51 7 0 15 -4 18 -9 4 -5 -3 -7 -15 -4 -11 3 -24 15 -29
27 -7 17 -8 15 -7 -12 1 -20 6 -30 14 -28 7 3 11 -3 10 -15 -1 -19 -17 -28
-17 -9 0 7 -6 7 -19 0 -14 -7 -22 -7 -27 2 -4 7 -3 8 4 4 8 -5 10 -2 6 8 -5
13 -8 13 -20 1 -16 -15 -19 -35 -5 -35 5 0 7 -9 4 -20 -3 -11 -10 -20 -17 -20
-6 0 -4 -5 4 -10 13 -8 13 -10 -1 -10 -9 0 -22 7 -29 15 -7 8 -18 15 -24 15
-6 1 -42 29 -81 65 -38 35 -71 62 -73 60 -2 -2 25 -31 60 -65 57 -57 58 -59
13 -22 -50 40 -121 111 -97 98 28 -16 7 8 -79 91 -50 48 -112 108 -137 133
-25 25 -39 36 -31 25 13 -20 13 -20 -8 -1 -13 10 -20 23 -16 29 3 5 2 7 -3 4
-10 -5 -124 114 -124 129 0 4 -8 13 -17 21 -10 8 -12 12 -5 8 16 -8 15 3 -2
20 -7 8 -17 11 -21 7 -5 -4 -5 -2 -2 4 9 15 -42 86 -55 78 -7 -4 -8 -2 -4 5 4
6 -10 33 -33 62 -23 29 -41 47 -41 42 0 -5 5 -14 12 -21 7 -7 8 -12 3 -12 -21
1 -275 385 -387 585 -295 528 -486 1118 -557 1725 -47 398 -45 857 5 1210 72
515 182 877 437 1435 51 112 74 189 81 283 8 103 -17 165 -170 424 -192 325
-265 524 -366 995 -7 34 -8 103 -3 205 4 84 7 176 6 203 0 47 27 170 36 161 2
-2 -3 -29 -12 -60 -9 -31 -15 -61 -13 -67 2 -6 16 33 31 86 15 54 25 100 22
103 -3 3 -5 -3 -5 -13 0 -10 -3 -15 -6 -12 -8 8 15 67 33 85 7 8 11 18 8 23
-4 5 -2 9 3 9 5 0 26 28 47 63 89 144 271 346 385 424 121 82 341 164 506 188
69 10 166 13 319 11 205 -3 229 -6 345 -34z m3380 -172 c235 -16 354 -29 545
-61 285 -47 438 -86 795 -202 393 -129 898 -396 1265 -670 383 -286 773 -682
1052 -1067 177 -244 338 -496 358 -561 6 -18 -3 -12 -35 24 -26 29 -48 46 -57
43 -8 -3 -12 -2 -9 3 6 8 -16 31 -44 46 -9 5 -7 -1 5 -15 l20 -24 -30 19
c-166 105 -304 171 -465 223 -165 52 -279 72 -582 98 -55 4 -68 9 -68 22 0 21
74 119 169 227 39 44 82 101 96 127 28 51 35 120 17 155 -6 11 -8 24 -4 28 4
3 2 5 -3 3 -6 -1 -37 24 -70 57 -65 65 -182 174 -230 215 -60 51 -323 258
-417 330 -54 41 -98 78 -98 83 0 4 -4 5 -10 2 -5 -3 -10 1 -10 9 0 8 -9 18
-20 21 -11 3 -20 12 -20 18 0 7 -4 6 -10 -3 -8 -13 -10 -13 -10 2 0 12 -5 15
-17 11 -12 -5 -14 -3 -8 7 6 10 4 12 -8 7 -9 -3 -19 -2 -22 3 -4 6 0 10 7 10
10 0 9 3 -2 10 -8 5 -17 5 -20 1 -3 -5 -43 14 -90 41 -95 54 -120 63 -152 54
-13 -4 -58 -48 -100 -99 -42 -51 -133 -159 -203 -242 -99 -117 -125 -155 -123
-175 2 -19 41 -55 158 -149 416 -332 930 -776 930 -803 0 -4 -15 -8 -32 -8
-27 1 -53 18 -138 91 -362 312 -800 670 -940 767 -57 40 -61 38 -136 -52 -136
-164 -432 -527 -467 -573 -48 -64 -46 -74 28 -165 54 -66 62 -87 21 -49 -44
39 -110 43 -855 44 -588 2 -719 0 -743 -12 -30 -14 -356 -364 -663 -711 -71
-80 -379 -422 -450 -500 -33 -36 -72 -80 -88 -99 -19 -23 -31 -30 -40 -23 -6
5 -30 12 -53 14 -22 3 -65 17 -96 32 -30 14 -60 26 -65 26 -6 0 -13 -33 -16
-77 -6 -109 -12 -683 -12 -1243 0 -557 -4 -533 98 -619 34 -29 87 -65 117 -80
l55 -26 361 -3 362 -3 3 368 c2 202 2 642 0 976 l-3 608 -184 -3 c-101 -2
-184 -1 -184 0 0 2 25 32 56 65 31 34 119 134 196 222 200 227 701 775 709
775 4 0 124 -127 266 -282 142 -155 317 -346 388 -423 72 -78 171 -188 222
-246 l91 -105 -189 4 -189 5 -1 -54 c-5 -152 -7 -576 -8 -1454 l-1 -970 -888
-3 c-766 -3 -901 -2 -987 12 -55 9 -113 20 -130 25 -28 9 -28 9 -6 10 37 1 15
16 -61 41 -37 13 -76 28 -85 36 -16 11 -13 12 20 7 24 -3 44 0 54 9 14 11 16
11 8 -2 -8 -13 -7 -13 8 -1 10 8 17 9 17 3 0 -7 10 -8 28 -3 15 5 36 6 47 4
60 -13 113 -14 119 -4 10 15 29 14 21 -1 -4 -7 0 -5 8 5 15 18 34 7 22 -12 -3
-6 4 -9 15 -8 10 1 22 8 25 15 4 11 8 12 19 2 11 -8 25 -9 50 -1 22 5 36 6 36
0 0 -5 7 -9 15 -9 8 0 15 -5 15 -10 0 -6 11 -3 24 5 37 25 65 26 86 5 11 -11
20 -16 20 -12 0 4 -5 13 -11 19 -7 7 -2 12 21 15 23 3 30 1 26 -9 -9 -21 11
-15 28 9 12 17 16 19 16 6 0 -12 6 -15 23 -11 18 4 19 3 7 -7 -12 -9 -10 -10
13 -5 19 4 26 2 22 -5 -3 -5 -1 -10 4 -10 14 0 14 13 0 27 -8 8 -7 13 2 18 8
5 10 4 5 -3 -8 -14 -4 -15 18 -6 9 3 16 13 16 22 0 15 2 15 17 0 13 -14 14
-20 3 -32 -10 -13 -10 -16 1 -16 8 0 3 -6 -10 -13 -47 -24 -37 -37 28 -37 l61
0 -5 29 c-3 18 0 33 10 41 16 13 39 4 29 -12 -4 -7 -2 -8 4 -4 7 4 12 2 12 -3
0 -6 -4 -12 -10 -12 -5 -1 -14 -3 -20 -4 -5 -1 -13 -3 -16 -4 -4 0 -1 -8 7
-17 10 -13 33 -15 130 -12 108 3 116 4 108 20 -5 10 -17 18 -26 18 -13 0 -13
3 -3 15 10 12 10 15 -3 15 -11 0 -15 7 -12 23 4 20 3 20 -9 5 -7 -10 -16 -15
-20 -11 -4 4 0 -6 8 -22 18 -35 14 -42 -14 -22 -15 11 -18 16 -8 20 9 4 7 6
-4 6 -20 1 -21 0 -12 -23 3 -9 11 -13 16 -10 6 4 9 1 7 -5 -3 -7 -8 -12 -12
-12 -4 1 -14 1 -23 1 -13 0 -14 3 -5 13 6 8 8 17 4 20 -11 12 -21 8 -27 -10
-3 -10 -4 -6 -2 10 2 15 0 27 -5 27 -4 0 -14 3 -22 6 -11 4 -13 -1 -10 -23 l4
-28 -15 25 c-11 19 -23 25 -48 25 -24 0 -34 5 -36 19 -3 11 0 16 7 11 6 -3 9
-11 6 -16 -3 -5 1 -6 9 -3 14 5 14 8 0 21 -13 14 -13 17 1 32 8 10 15 21 15
26 0 4 -11 -4 -25 -19 -26 -28 -51 -35 -41 -11 3 8 1 15 -4 15 -6 0 -10 9 -10
20 0 11 -6 19 -12 17 -15 -2 -12 56 3 61 5 2 14 13 21 25 11 22 11 22 -10 4
-20 -18 -20 -18 -24 5 -2 17 -9 22 -24 20 -23 -3 -29 24 -7 32 7 3 13 0 13 -6
0 -9 3 -9 12 0 7 7 28 12 47 12 20 0 43 4 51 10 9 5 -97 9 -286 10 -368 1
-456 11 -546 64 -60 37 -83 41 -58 11 11 -13 10 -14 -4 -9 -9 3 -16 11 -16 16
0 6 -8 8 -18 6 -12 -4 -18 1 -18 13 0 11 6 19 14 19 7 0 10 -4 7 -10 -3 -5 1
-10 9 -10 22 0 20 5 -11 41 -16 17 -27 33 -26 35 2 2 -6 20 -17 39 -11 20 -20
44 -20 55 0 11 -4 20 -9 20 -5 0 -8 6 -7 13 0 6 -2 12 -6 12 -4 0 -22 14 -40
32 -24 23 -37 30 -48 23 -11 -7 -8 -10 14 -16 20 -5 25 -9 16 -18 -8 -8 -13
-8 -18 0 -11 16 -47 23 -68 12 -13 -7 -12 -3 5 11 19 17 20 21 6 21 -9 0 -22
-13 -28 -30 -6 -17 -17 -30 -23 -30 -7 0 -10 -8 -7 -20 7 -25 2 -25 -39 -1
-30 19 -32 19 -45 3 -12 -16 -12 -15 -6 2 4 13 3 17 -5 12 -7 -4 -12 -1 -12 8
0 10 -6 13 -15 10 -8 -4 -13 -10 -10 -14 3 -4 -2 -11 -10 -14 -10 -4 -19 2
-25 17 -8 21 -9 21 -9 -4 -1 -47 47 -216 80 -282 27 -55 35 -65 55 -62 25 2
33 -10 12 -18 -9 -3 -7 -7 6 -12 11 -5 21 -3 27 6 5 8 9 10 9 5 0 -5 -7 -18
-17 -28 -15 -17 -15 -18 1 -18 9 0 14 -4 11 -10 -12 -19 54 -83 79 -76 13 3
16 2 8 -6 -6 -6 -8 -18 -4 -27 5 -14 4 -14 -11 -2 -15 12 -17 11 -17 -5 0 -17
-1 -17 -17 -1 -16 16 -16 19 -3 28 12 8 11 9 -6 4 -16 -4 -32 5 -64 36 -34 33
-42 37 -37 21 8 -31 2 -27 -31 21 -71 103 -107 188 -149 352 l-27 100 -1 470
c-1 259 1 529 5 600 l6 130 3 -175 c1 -96 4 -191 5 -210 1 -19 3 -53 4 -75 2
-36 4 -38 15 -20 15 26 15 1338 -1 1400 -9 35 -10 27 -12 -65 -3 -185 -5 -218
-13 -226 -4 -4 -8 71 -8 167 -1 96 -4 338 -8 539 -6 355 -7 366 -29 412 -13
26 -35 58 -49 73 l-26 25 -359 0 c-216 0 -357 4 -353 9 3 5 -1 16 -9 24 -8 8
-12 17 -9 21 4 3 2 6 -4 6 -23 0 -156 300 -169 380 -6 34 -3 40 30 65 50 38
168 174 160 186 -3 5 0 8 8 7 7 -2 12 3 10 10 -1 6 2 11 6 10 4 -2 75 59 158
134 249 228 383 331 654 505 155 99 223 140 292 174 27 14 36 24 32 37 -5 13
-4 14 4 3 8 -10 14 -11 32 -1 18 10 20 14 9 22 -10 7 -8 8 9 5 12 -3 22 -1 22
4 0 5 9 9 20 9 11 0 23 7 27 16 6 15 114 70 150 76 10 2 23 8 30 14 24 22 326
141 513 202 479 156 1129 236 1630 202z m-4882 -1925 c-3 -3 -9 2 -12 12 -6
14 -5 15 5 6 7 -7 10 -15 7 -18z m20 -40 c-3 -3 -9 2 -12 12 -6 14 -5 15 5 6
7 -7 10 -15 7 -18z m212 -371 c12 -19 21 -37 18 -39 -2 -2 -14 14 -26 36 -28
49 -22 52 8 3z m1547 -1451 c-2 -1465 -4 -1418 48 -1618 94 -363 338 -620 699
-734 202 -65 200 -64 1279 -68 l977 -4 0 -255 0 -254 -977 2 c-538 1 -1007 5
-1043 8 l-65 7 80 2 c106 2 80 15 -60 30 -141 14 -372 63 -500 106 -186 61
-407 183 -513 282 -7 7 -18 10 -25 7 -7 -2 -32 16 -57 41 -24 25 -38 45 -31
45 6 0 9 5 6 10 -4 6 -11 7 -17 4 -7 -4 -8 -2 -4 4 4 6 -13 37 -36 69 -24 33
-52 77 -62 98 -10 22 -25 51 -32 65 -22 41 -80 162 -103 213 -23 50 -32 60
-26 25 9 -44 -14 -1 -39 74 -27 81 -59 248 -73 383 -12 123 -9 1756 4 1779 8
14 12 -21 18 -145 13 -248 24 -142 24 226 1 311 -5 409 -20 370 -4 -11 -8 -38
-9 -60 -2 -35 -3 -37 -10 -15 -4 14 -8 170 -9 348 l-1 322 289 0 289 0 -1
-1367z m6123 1344 c243 -42 411 -95 573 -179 302 -157 590 -516 707 -883 13
-38 29 -90 37 -114 20 -64 53 -320 53 -415 0 -96 -32 -356 -54 -441 -67 -259
-194 -485 -385 -687 -165 -176 -402 -309 -674 -379 -206 -53 -178 -52 -1164
-56 l-923 -4 0 -404 0 -403 -85 -41 c-103 -50 -185 -126 -221 -205 l-25 -56
-67 0 c-37 0 -186 -2 -331 -3 l-263 -4 3 1068 4 1068 125 3 c69 2 663 5 1320
6 1328 2 1271 -1 1420 70 101 47 194 141 244 245 81 168 67 398 -33 547 -32
47 -150 170 -163 170 -5 0 -7 4 -3 9 6 11 -29 33 -60 37 -11 1 -47 11 -80 21
-56 17 -130 18 -1225 20 l-1165 3 -44 47 c-24 27 -115 122 -202 213 -88 91
-168 178 -178 193 -10 16 -83 95 -162 175 -79 81 -188 196 -243 255 -54 59
-115 116 -135 127 -36 19 -24 19 1634 17 1505 -3 1679 -5 1765 -20z m-5780
-949 c0 -5 -4 -8 -10 -8 -5 0 -10 10 -10 23 0 18 2 19 10 7 5 -8 10 -18 10
-22z m-7 -83 c4 -8 2 -17 -3 -20 -6 -4 -10 3 -10 14 0 25 6 27 13 6z m-6 -92
c-3 -10 -5 -2 -5 17 0 19 2 27 5 18 2 -10 2 -26 0 -35z m0 -235 c-3 -8 -6 -5
-6 6 -1 11 2 17 5 13 3 -3 4 -12 1 -19z m0 -65 c-3 -10 -5 -2 -5 17 0 19 2 27
5 18 2 -10 2 -26 0 -35z m0 -85 c-3 -7 -5 -2 -5 12 0 14 2 19 5 13 2 -7 2 -19
0 -25z m7400 -645 c14 -178 7 -689 -11 -853 -30 -272 -36 -306 -90 -545 -56
-243 -141 -518 -235 -755 -43 -109 -258 -550 -285 -585 -15 -19 -15 -19 -16
12 0 25 -15 47 -77 113 l-77 82 -2 133 c-2 149 -7 178 -40 253 -22 49 -118
163 -155 183 -9 4 -56 20 -105 35 -130 38 -151 44 -234 63 l-75 17 -3 307 c-1
169 0 307 2 307 2 0 48 9 102 20 442 91 805 344 1045 730 105 170 209 418 225
539 4 28 10 51 14 51 5 0 12 -48 17 -107z m-7069 -580 c-2 -5 2 -10 7 -12 6
-3 16 -11 24 -18 11 -12 17 -11 34 4 12 10 17 12 12 4 -6 -11 -4 -13 9 -8 12
5 16 3 13 -5 -2 -7 -14 -12 -25 -10 -16 2 -22 -2 -23 -15 0 -10 -3 -13 -6 -5
-2 6 -9 10 -14 6 -5 -3 -9 0 -9 5 0 6 -3 10 -7 10 -22 -4 -30 3 -30 26 0 14 3
25 8 25 5 0 8 -3 7 -7z m-38 -27 c0 -3 -4 -8 -10 -11 -5 -3 -10 -1 -10 4 0 6
5 11 10 11 6 0 10 -2 10 -4z m-140 -10 c0 -3 -4 -8 -10 -11 -5 -3 -10 -1 -10
4 0 6 5 11 10 11 6 0 10 -2 10 -4z m160 -36 c0 -5 -4 -10 -10 -10 -5 0 -10 5
-10 10 0 6 5 10 10 10 6 0 10 -4 10 -10z m120 -11 c0 -5 -4 -9 -8 -9 -5 0 -9
7 -9 15 0 8 4 12 9 9 4 -3 8 -9 8 -15z m-67 -64 c-3 -9 -8 -14 -10 -11 -3 3
-2 9 2 15 9 16 15 13 8 -4z m61 -61 c3 -8 2 -12 -4 -9 -6 3 -10 10 -10 16 0
14 7 11 14 -7z m34 -109 c-3 -3 -9 2 -12 12 -6 14 -5 15 5 6 7 -7 10 -15 7
-18z m208 -12 c-10 -10 -19 5 -10 18 6 11 8 11 12 0 2 -7 1 -15 -2 -18z m44 1
c0 -8 -4 -12 -10 -9 -5 3 -10 10 -10 16 0 5 5 9 10 9 6 0 10 -7 10 -16z m40
-28 c0 -3 -4 -8 -10 -11 -5 -3 -10 -1 -10 4 0 6 5 11 10 11 6 0 10 -2 10 -4z
m599 -78 c-1 -31 -1 -31 -8 -8 -5 14 -6 28 -4 33 9 15 13 6 12 -25z m-1047 0
c-7 -7 -12 -8 -12 -2 0 14 12 26 19 19 2 -3 -1 -11 -7 -17z m1041 -53 c-3 -9
-8 -14 -10 -11 -3 3 -2 9 2 15 9 16 15 13 8 -4z m-36 -37 c-3 -8 -6 -5 -6 6
-1 11 2 17 5 13 3 -3 4 -12 1 -19z m-117 2 c0 -5 -5 -10 -11 -10 -5 0 -7 5 -4
10 3 6 8 10 11 10 2 0 4 -4 4 -10z m100 0 c0 -5 -4 -10 -10 -10 -5 0 -10 5
-10 10 0 6 5 10 10 10 6 0 10 -4 10 -10z m80 -12 c0 -4 -7 -8 -15 -8 -8 0 -15
4 -15 8 0 5 7 9 15 9 8 0 15 -4 15 -9z m-83 -28 c-1 -12 -5 -16 -10 -11 -5 5
-6 14 -3 20 11 16 15 13 13 -9z m85 -13 c-12 -6 -22 -17 -22 -26 0 -11 -3 -12
-12 -3 -9 9 -6 16 12 32 12 11 27 17 33 13 6 -4 2 -11 -11 -16z m52 -12 c-4
-8 -14 -15 -23 -15 -14 1 -13 3 3 15 25 19 27 19 20 0z m-174 -5 c0 -5 -2 -10
-4 -10 -2 0 -12 -3 -22 -7 -16 -6 -17 -5 -4 10 17 19 30 22 30 7z m65 -10 c-3
-5 -10 -10 -16 -10 -5 0 -9 5 -9 10 0 6 7 10 16 10 8 0 12 -4 9 -10z m-360
-20 c-3 -5 -10 -10 -16 -10 -5 0 -9 5 -9 10 0 6 7 10 16 10 8 0 12 -4 9 -10z
m95 -11 c0 -5 6 -7 13 -3 9 5 9 4 0 -6 -6 -7 -16 -9 -22 -6 -14 9 -14 26 -1
26 6 0 10 -5 10 -11z m375 -9 c-4 -11 -2 -20 4 -20 6 0 11 -6 11 -13 0 -8 -7
-14 -15 -14 -8 0 -13 3 -10 5 3 3 -2 13 -11 23 -18 19 -11 39 12 39 11 0 13
-6 9 -20z m-32 -41 c-6 -6 -19 -9 -29 -6 -17 3 -16 5 6 14 28 12 39 8 23 -8z
m3845 -18 l122 -1 0 -44 c0 -42 -2 -45 -35 -57 -19 -7 -35 -16 -35 -20 0 -4
32 -143 70 -309 39 -166 70 -304 70 -306 0 -2 6 -1 14 2 8 3 23 1 33 -4 10 -5
40 -13 66 -16 l48 -7 -3 148 c-2 81 1 213 6 293 l9 145 53 54 c29 29 59 51 65
49 7 -2 16 -17 21 -33 6 -26 3 -35 -29 -67 -32 -33 -36 -43 -41 -107 l-5 -71
27 0 26 0 0 -209 0 -209 98 -17 c53 -10 170 -37 259 -61 253 -67 257 -70 261
-223 2 -58 7 -110 12 -116 4 -5 5 -34 3 -63 -5 -44 -8 -52 -22 -46 -47 21
-154 43 -209 43 -225 2 -404 -125 -476 -340 -14 -41 -30 -74 -35 -73 -6 1 -23
2 -38 3 -31 1 -27 9 7 14 20 3 29 16 46 65 87 241 305 382 554 358 86 -9 117
1 63 20 -74 27 -216 17 -308 -21 -54 -23 -145 -82 -177 -115 -14 -16 -29 -26
-32 -22 -3 3 -6 -1 -6 -9 0 -8 -9 -21 -19 -29 -11 -7 -18 -17 -15 -22 3 -4 1
-8 -5 -8 -12 0 -33 -42 -60 -120 l-19 -55 -100 -3 -99 -3 -2 -87 c-1 -48 -5
-89 -9 -93 -4 -3 -72 -3 -151 0 l-143 6 -3 155 c-2 182 -21 264 -86 393 -34
64 -63 103 -139 178 -80 80 -111 104 -181 137 -110 54 -182 72 -304 79 -171 9
-320 -39 -477 -152 -65 -47 -75 -51 -100 -43 -15 6 -28 15 -28 22 0 7 25 30
55 52 30 21 57 47 61 57 3 9 9 17 13 17 4 0 7 21 7 48 l-1 47 70 35 c61 30 80
35 148 36 54 0 81 4 87 14 4 7 15 61 24 119 9 58 30 166 46 239 17 73 30 135
30 137 0 2 13 18 28 34 l28 31 -3 -37 -2 -38 10 38 c17 57 38 49 28 -10 -9
-51 -80 -453 -83 -465 0 -4 46 -10 104 -12 58 -3 130 -12 160 -20 30 -9 55
-14 57 -12 1 1 6 49 10 107 4 64 9 94 13 79 4 -14 10 38 14 115 11 222 13 238
31 252 10 6 24 9 32 6 13 -5 14 -45 8 -297 l-7 -291 62 -34 c123 -70 270 -229
336 -364 l29 -58 93 2 94 1 -6 82 c-8 85 -50 291 -69 333 l-11 24 -17 -22
c-13 -17 -15 -29 -8 -48 6 -15 6 -28 0 -34 -5 -5 -7 -17 -4 -26 5 -18 -29 17
-64 64 -12 17 -24 27 -28 23 -4 -4 2 -19 13 -35 23 -33 59 -102 45 -88 -19 20
-96 150 -96 162 0 7 -4 10 -9 7 -4 -3 -8 0 -8 5 0 17 -24 13 -48 -9 -25 -24
-36 -25 -51 -6 -9 10 7 31 74 97 47 46 92 85 99 87 7 2 18 -4 25 -12 10 -12 7
-22 -19 -55 l-32 -40 33 -40 c19 -22 37 -41 41 -41 4 0 19 15 33 34 15 19 36
36 48 38 12 2 21 8 20 13 -6 39 -95 447 -103 475 -22 73 12 68 -473 73 -241 2
-439 6 -441 8 -2 2 -8 30 -13 61 l-10 58 316 2 c174 2 361 2 416 1 55 -1 155
-2 223 -2z m-425 -148 c-7 -2 -21 -2 -30 0 -10 3 -4 5 12 5 17 0 24 -2 18 -5z
m44 1 c-3 -3 -12 -4 -19 -1 -8 3 -5 6 6 6 11 1 17 -2 13 -5z m76 -1 c-7 -2
-21 -2 -30 0 -10 3 -4 5 12 5 17 0 24 -2 18 -5z m144 1 c-3 -3 -12 -4 -19 -1
-8 3 -5 6 6 6 11 1 17 -2 13 -5z m86 -1 c-13 -2 -35 -2 -50 0 -16 2 -5 4 22 4
28 0 40 -2 28 -4z m-5542 -300 c13 -16 12 -17 -3 -4 -10 7 -18 15 -18 17 0 8
8 3 21 -13z m4857 -519 c2 -14 14 -23 42 -31 35 -9 41 -8 53 10 12 19 14 19
75 -12 55 -28 62 -34 56 -55 -4 -18 1 -28 24 -44 20 -15 32 -18 39 -11 14 14
53 -11 89 -58 25 -33 26 -37 10 -49 -16 -11 -16 -14 6 -48 15 -23 31 -36 45
-36 26 0 32 -8 48 -71 11 -41 11 -50 -1 -57 -22 -12 -6 -81 22 -94 19 -9 24
-19 24 -47 0 -71 -11 -111 -31 -111 -10 0 -23 -9 -29 -19 -12 -23 -13 -61 -2
-61 29 -1 31 -18 8 -76 -19 -47 -29 -59 -46 -59 -12 0 -33 -13 -46 -28 -25
-30 -31 -47 -14 -47 22 0 7 -28 -39 -74 -42 -42 -51 -46 -68 -36 -27 17 -83
-11 -76 -38 6 -23 -58 -68 -111 -77 -30 -6 -36 -4 -36 9 0 14 -9 17 -47 14
-45 -3 -48 -5 -51 -32 -3 -27 -6 -28 -40 -22 -20 3 -54 6 -74 6 -33 0 -38 3
-38 24 0 16 -7 26 -22 30 -40 10 -68 7 -68 -9 0 -22 -20 -19 -88 16 -53 26
-62 34 -62 58 0 35 -52 70 -76 50 -12 -10 -19 -8 -40 12 -14 13 -35 37 -46 52
-16 23 -18 30 -7 43 20 24 -17 87 -46 80 -24 -6 -36 12 -60 91 -12 38 -11 43
6 55 16 10 18 20 13 47 -4 21 -14 36 -26 38 -15 4 -18 16 -19 64 -1 33 -2 65
-3 72 -1 6 11 13 25 15 21 2 28 10 33 34 9 47 7 100 -4 93 -5 -3 -7 -12 -3
-20 3 -8 0 -15 -6 -15 -18 0 -13 27 15 86 21 44 30 54 47 52 28 -4 69 55 61
87 -5 19 4 30 50 64 42 31 60 40 73 33 23 -14 83 23 83 52 0 17 12 25 63 44
76 27 73 27 80 1 4 -15 11 -20 22 -15 9 3 28 6 41 6 18 0 24 5 24 20 0 19 5
21 73 18 64 -3 72 -5 75 -24z m2956 -213 c320 -445 472 -1091 356 -1515 -91
-332 -247 -534 -516 -669 -130 -65 -243 -93 -464 -112 -95 -8 -327 15 -555 57
-93 17 -195 35 -225 40 -30 5 -138 29 -240 53 -102 24 -213 50 -247 56 -35 7
-63 16 -63 21 0 4 -7 4 -17 1 -10 -4 -14 -2 -10 4 4 6 -43 18 -121 32 -70 12
-157 29 -194 37 -37 8 -81 14 -97 14 -32 0 -101 -28 -101 -41 0 -18 -377 -214
-580 -302 -278 -121 -611 -234 -815 -276 -49 -11 -121 -26 -160 -34 -38 -8
-140 -25 -225 -36 -85 -12 -186 -26 -225 -31 -68 -9 -445 -23 -415 -15 8 2 89
9 180 15 287 18 424 43 383 68 -6 4 -13 14 -15 21 -2 8 -11 22 -20 32 -10 10
-14 26 -11 38 3 13 1 21 -7 21 -7 0 -10 6 -7 14 4 10 0 12 -14 9 -10 -3 -19
-9 -19 -14 0 -5 -8 -4 -19 3 -20 12 -22 61 -3 80 6 6 8 17 5 25 -3 7 3 23 12
33 10 11 13 20 8 20 -6 0 -14 -8 -17 -17 -6 -15 -8 -15 -16 -3 -13 20 -12 33
0 25 14 -9 12 29 -2 43 -9 9 -9 15 1 25 11 10 13 9 8 -5 -4 -10 1 -18 14 -21
10 -3 19 -1 19 5 0 13 -41 47 -57 48 -15 0 -15 2 -7 24 3 9 9 14 13 11 4 -2 7
6 6 18 -1 12 -8 22 -16 22 -8 0 -14 7 -14 15 0 8 5 14 10 13 6 -1 12 12 13 29
2 20 -2 28 -10 25 -7 -2 -11 -12 -10 -22 3 -17 2 -17 -13 -5 -14 11 -14 15 -2
21 9 6 13 22 11 49 -1 22 2 40 7 40 5 0 9 -5 9 -12 0 -6 3 -8 6 -5 4 4 1 13
-5 21 -10 12 -9 20 2 38 21 33 30 68 18 68 -6 0 -10 -3 -9 -7 1 -5 -3 -18 -10
-29 -6 -12 -9 -23 -7 -26 3 -3 -5 -4 -17 -3 -12 1 -24 7 -26 15 -3 7 0 10 6 7
5 -4 15 0 22 8 10 11 9 18 -4 30 -9 9 -16 12 -16 6 0 -6 -4 -11 -10 -11 -5 0
-10 7 -10 15 0 8 7 15 15 15 8 0 15 5 15 11 0 5 -5 7 -12 3 -6 -4 -8 -3 -5 4
4 5 18 9 32 7 21 -2 25 2 25 23 0 14 -7 34 -17 44 -15 17 -15 18 0 18 10 0 17
6 17 13 0 18 -15 39 -26 35 -5 -2 -10 1 -11 6 -1 5 -7 13 -15 18 -10 7 -9 8 5
4 9 -3 17 -1 17 4 0 6 -7 10 -15 10 -8 0 -15 5 -15 11 0 6 8 9 18 7 10 -2 17
-12 16 -26 -1 -29 18 -23 23 7 2 12 -1 20 -5 17 -4 -2 -14 4 -20 15 -12 19
-11 19 8 9 11 -6 20 -7 20 -1 0 5 -6 11 -12 14 -9 2 -13 24 -13 63 0 46 4 63
20 79 11 11 27 29 35 40 14 19 14 19 -3 5 -35 -27 -80 -19 -61 11 5 8 8 8 14
0 9 -16 40 -2 33 15 -3 8 -12 13 -21 12 -9 -2 -18 4 -20 13 -2 13 3 15 24 11
l28 -5 -22 23 c-18 20 -19 24 -6 37 8 8 11 20 7 26 -5 8 -8 7 -11 -2 -7 -22
-35 -50 -44 -45 -13 8 -9 24 7 24 19 0 37 34 28 56 -5 14 -3 16 12 11 15 -6
16 -5 5 8 -9 11 -9 19 -2 28 11 13 2 39 -14 39 -5 0 -8 4 -6 10 1 5 -3 6 -9 2
-6 -3 -15 -1 -19 6 -9 15 10 51 22 44 4 -3 8 -1 8 4 0 5 -9 12 -20 15 -11 3
-18 2 -15 -3 3 -4 -2 -13 -10 -20 -8 -7 -15 -9 -15 -4 0 5 -5 2 -10 -6 -7 -11
-10 -11 -10 -2 0 7 -5 10 -12 6 -7 -5 -8 -3 -3 6 4 7 9 30 10 51 1 21 7 45 13
52 12 14 11 40 -1 45 -18 6 -25 1 -20 -17 3 -11 -2 -21 -12 -25 -15 -5 -17 0
-14 38 2 25 0 42 -5 39 -5 -4 -6 -1 -2 5 13 21 38 14 31 -8 -8 -26 7 -26 23 1
11 18 11 23 -5 36 -16 13 -16 14 -1 9 12 -4 15 -1 11 11 -4 11 -2 14 8 11 8
-3 13 -16 12 -29 -1 -13 0 -18 3 -12 4 10 11 10 25 2 11 -5 16 -15 13 -21 -5
-7 -2 -8 6 -3 10 6 8 12 -9 27 -13 10 -20 18 -16 18 5 0 -2 9 -15 20 -12 11
-27 17 -31 14 -5 -3 -9 0 -9 6 0 6 -4 9 -10 5 -5 -3 -7 -12 -3 -20 3 -8 0 -15
-7 -15 -6 0 -8 -4 -5 -10 8 -14 -8 -13 -22 1 -12 12 -6 42 7 34 4 -2 15 4 25
15 14 15 16 23 7 32 -7 7 -8 17 -2 28 7 14 6 17 -7 16 -9 0 -18 6 -20 14 -4
13 -3 13 6 0 9 -13 11 -13 11 2 0 10 -10 27 -22 39 -13 12 -17 19 -11 15 10
-5 11 -1 4 17 -6 14 -7 29 -3 33 4 5 -1 2 -10 -5 -29 -21 -43 -1 -15 21 24 19
27 58 5 58 -5 0 -6 -6 -2 -12 4 -7 3 -10 -1 -5 -12 10 -14 47 -3 53 4 3 8 -1
8 -8 0 -10 3 -9 10 2 12 20 18 12 23 -35 7 -53 28 -137 34 -131 3 2 -3 42 -13
88 -14 62 -18 123 -18 242 1 91 -2 152 -7 145 -5 -8 -9 -29 -9 -46 0 -18 -4
-33 -8 -33 -9 0 -6 -73 3 -106 7 -24 -20 -30 -29 -7 -3 8 -1 11 4 8 6 -3 10 1
10 10 0 10 -5 14 -12 9 -10 -5 -10 -4 -2 5 17 19 2 74 -24 87 -31 15 -35 21
-14 21 9 0 23 -4 30 -10 9 -7 16 -6 25 3 9 10 9 11 0 6 -8 -5 -13 -1 -13 9 0
9 -4 14 -8 11 -5 -3 -15 6 -22 19 -10 19 -19 24 -34 19 -17 -5 -19 -4 -8 7 14
15 16 33 3 25 -5 -4 -12 0 -14 6 -4 8 -6 7 -6 -3 -2 -32 -26 -26 -44 9 -13 24
-14 32 -4 24 11 -9 14 -8 14 3 0 8 -4 15 -9 15 -4 0 -8 5 -8 11 0 5 5 7 11 3
6 -3 3 5 -6 20 -14 21 -15 27 -4 31 8 3 15 16 15 30 1 14 -2 22 -7 19 -5 -3
-12 8 -15 25 l-6 31 -352 2 c-193 0 -436 2 -540 2 l-189 1 -79 -95 c-136 -162
-163 -190 -185 -190 -11 0 -58 28 -103 63 -187 140 -210 157 -210 149 0 -5 29
-37 65 -70 36 -34 65 -65 65 -68 0 -3 -31 21 -68 53 -37 32 -100 83 -140 113
-39 30 -71 61 -72 68 0 17 64 16 98 -2 15 -8 101 -73 192 -145 91 -72 172
-131 181 -131 8 0 69 65 135 145 l119 144 711 1 710 0 -27 -58 c-54 -111 -86
-306 -74 -442 12 -141 59 -381 74 -380 3 1 28 29 54 63 27 34 90 107 141 162
110 118 135 146 159 177 9 13 48 61 85 107 37 46 82 104 100 130 43 61 57 65
48 15 -31 -183 -31 -352 0 -482 73 -297 328 -544 649 -628 52 -14 106 -18 210
-18 129 0 148 2 240 31 55 18 131 49 169 69 38 20 79 37 92 39 12 1 52 26 88
54 65 52 80 68 51 57 -23 -8 -18 2 9 19 22 14 28 15 53 2 58 -30 402 -126 733
-206 250 -59 484 -85 708 -78 183 5 282 25 400 78 225 101 388 312 444 574 33
155 35 626 3 708 -16 40 16 12 69 -62z m-1344 -184 c14 3 29 12 33 20 14 22
55 14 87 -17 34 -33 48 -37 56 -15 5 13 10 13 35 -1 17 -8 35 -26 41 -40 9
-19 17 -24 33 -20 29 7 95 -58 77 -76 -13 -13 11 -68 31 -68 19 0 61 -90 48
-103 -16 -16 -14 -84 3 -90 8 -3 12 -16 10 -29 -11 -80 -16 -98 -27 -98 -21 0
-51 -59 -38 -74 15 -18 -45 -98 -79 -106 -15 -3 -26 -15 -30 -30 -8 -35 -130
-93 -130 -61 0 5 10 11 22 14 44 12 12 14 -49 4 -57 -9 -63 -12 -63 -33 0 -22
-4 -24 -56 -24 -51 0 -56 2 -51 20 3 11 2 18 -2 16 -4 -3 -13 -1 -21 5 -13 7
-13 9 0 9 13 0 13 1 0 10 -18 11 -61 13 -59 3 5 -32 -5 -32 -61 -2 -52 28 -59
34 -54 55 4 15 2 24 -5 24 -6 0 -11 6 -11 13 0 18 -34 49 -50 45 -17 -4 -58
64 -42 70 7 2 12 13 12 23 0 11 -4 17 -10 14 -6 -4 -10 8 -10 30 0 32 -2 36
-20 30 -19 -6 -20 -3 -18 79 3 71 6 86 19 86 12 0 14 7 11 30 -3 23 0 30 12
30 15 0 17 5 15 28 0 4 -6 6 -14 4 -10 -2 -8 9 8 37 12 21 27 37 33 34 15 -5
48 42 40 56 -7 11 54 72 66 65 4 -3 8 -12 8 -20 0 -12 3 -12 20 -2 11 7 20 18
20 25 0 6 24 23 53 37 51 24 52 24 67 6 11 -14 22 -18 40 -13z m-4940 -37 c0
-5 -2 -10 -4 -10 -3 0 -8 5 -11 10 -3 6 -1 10 4 10 6 0 11 -4 11 -10z m1522
-32 c-8 -8 -9 -4 -5 13 4 13 8 18 11 10 2 -7 -1 -18 -6 -23z m40 3 c8 11 9 11
6 1 -4 -16 -22 -18 -24 -2 -2 7 -1 6 3 -1 4 -8 8 -7 15 2z m44 -91 c0 -20 -7
-25 -19 -13 -4 3 -2 12 4 20 15 17 15 17 15 -7z m40 -121 c3 -5 1 -9 -5 -9 -5
0 -11 -7 -13 -16 -2 -10 -7 -6 -14 14 -10 27 -9 29 8 25 10 -3 21 -9 24 -14z
m2712 -16 c-10 -2 -26 -2 -35 0 -10 3 -2 5 17 5 19 0 27 -2 18 -5z m163 -86
c-8 -8 -11 -7 -11 4 0 20 13 34 18 19 3 -7 -1 -17 -7 -23z m-2913 -53 c-4 -3
-12 5 -18 18 -12 22 -12 22 6 6 10 -10 15 -20 12 -24z m30 -96 c17 -17 15 -24
-7 -24 -14 0 -17 4 -10 12 7 8 6 14 -3 17 -7 3 -8 6 -2 6 5 1 15 -4 22 -11z
m-4107 -135 c13 -16 12 -17 -3 -4 -10 7 -18 15 -18 17 0 8 8 3 21 -13z m4079
-163 c0 -5 -7 -7 -15 -4 -8 4 -15 8 -15 10 0 2 7 4 15 4 8 0 15 -4 15 -10z
m77 -136 c-3 -3 -12 -4 -19 -1 -8 3 -5 6 6 6 11 1 17 -2 13 -5z m35 -26 c-9
-9 -15 -9 -24 0 -9 9 -7 12 12 12 19 0 21 -3 12 -12z m28 -62 c0 -8 -4 -17 -8
-20 -4 -2 -8 4 -8 15 0 10 4 19 8 19 4 0 8 -6 8 -14z m-40 -21 c0 -8 -4 -15
-10 -15 -5 0 -7 7 -4 15 4 8 8 15 10 15 2 0 4 -7 4 -15z m-3779 -52 c13 -16
12 -17 -3 -4 -10 7 -18 15 -18 17 0 8 8 3 21 -13z m40 -40 c13 -16 12 -17 -3
-4 -10 7 -18 15 -18 17 0 8 8 3 21 -13z m3789 -37 c0 -2 -6 -9 -13 -15 -10 -8
-14 -7 -14 4 0 8 6 15 14 15 7 0 13 -2 13 -4z m-3325 -36 c-3 -5 -13 -6 -21
-3 -12 4 -13 8 -3 14 15 9 32 2 24 -11z m-5 -30 c0 -5 -4 -10 -10 -10 -5 0
-10 5 -10 10 0 6 5 10 10 10 6 0 10 -4 10 -10z m-100 -120 c0 -11 -2 -20 -4
-20 -2 0 -6 9 -9 20 -3 11 -1 20 4 20 5 0 9 -9 9 -20z m-62 -39 c87 -74 109
-95 62 -60 -53 39 -122 99 -114 99 3 0 26 -18 52 -39z m3473 -4 c-1 -12 -15
-9 -19 4 -3 6 1 10 8 8 6 -3 11 -8 11 -12z m-31 -21 c0 -3 -4 -8 -10 -11 -5
-3 -10 -1 -10 4 0 6 5 11 10 11 6 0 10 -2 10 -4z m-3276 -104 c16 -12 25 -22
19 -22 -5 0 -24 14 -43 31 -36 32 -26 28 24 -9z m3346 -18 c0 -2 -7 -4 -15 -4
-8 0 -15 4 -15 10 0 5 7 7 15 4 8 -4 15 -8 15 -10z m-3203 -85 c178 -121 332
-215 488 -299 33 -17 65 -37 70 -42 12 -13 -199 97 -237 124 -14 10 -30 18
-34 18 -11 0 -383 251 -391 264 -4 6 3 4 15 -4 12 -8 52 -36 89 -61z m8871
-50 c-3 -8 -7 -3 -11 10 -4 17 -3 21 5 13 5 -5 8 -16 6 -23z m-8030 -418 c67
-30 121 -56 119 -58 -5 -5 -240 97 -252 109 -13 14 -13 14 133 -51z m2336 -6
c-4 -8 -11 -12 -16 -9 -6 4 -5 10 3 15 19 12 19 11 13 -6z m46 -85 c0 -5 -5
-10 -11 -10 -5 0 -7 5 -4 10 3 6 8 10 11 10 2 0 4 -4 4 -10z m-23 -104 c0 -8
-8 -11 -21 -8 -19 5 -19 6 0 13 10 4 19 8 20 8 0 1 1 -5 1 -13z m-520 -212
c-3 -3 -12 -4 -19 -1 -8 3 -5 6 6 6 11 1 17 -2 13 -5z m71 -1 c-10 -2 -28 -2
-40 0 -13 2 -5 4 17 4 22 1 32 -1 23 -4z"/>
<path d="M8311 8484 c0 -11 3 -14 6 -6 3 7 2 16 -1 19 -3 4 -6 -2 -5 -13z"/>
<path d="M8358 8441 c22 -21 32 -68 12 -56 -6 4 -8 11 -5 16 4 5 3 14 -1 20
-5 8 -9 7 -14 -1 -12 -19 -41 -4 -34 17 4 15 4 15 -4 3 -6 -8 -16 -78 -22
-155 -26 -293 11 -813 81 -1145 55 -260 134 -537 209 -730 12 -30 25 -66 30
-80 35 -105 234 -532 251 -538 5 -2 9 -12 9 -23 0 -10 5 -19 10 -19 6 0 10 -4
10 -10 0 -13 102 -184 112 -188 5 -2 8 -10 8 -18 0 -8 5 -14 11 -14 5 0 -4 25
-20 56 -17 30 -31 64 -31 75 0 10 -3 18 -7 18 -21 -3 -24 3 -12 18 8 10 9 14
2 10 -14 -9 -30 12 -17 22 5 3 10 13 12 21 2 8 7 16 12 18 5 2 7 9 4 16 -7 19
46 27 63 10 17 -17 33 -18 33 -3 0 5 -4 7 -10 4 -5 -3 -10 -2 -10 2 0 12 22
33 35 33 5 0 4 -4 -4 -9 -11 -7 -10 -11 5 -19 17 -9 20 -7 19 16 0 24 3 27 34
25 19 0 40 -7 46 -15 11 -15 40 -23 31 -9 -3 5 1 14 9 21 15 12 21 4 16 -23
-1 -5 3 -6 9 -2 5 3 10 0 10 -7 0 -9 3 -9 10 2 5 8 10 11 10 6 0 -5 6 -3 14 3
7 6 24 10 37 9 16 -2 23 2 21 11 -3 12 0 12 12 2 9 -7 16 -8 20 -2 4 5 16 9
27 8 21 -1 21 -2 -1 -19 -12 -10 -18 -18 -13 -18 5 0 13 3 17 8 4 4 12 8 17 8
5 1 11 3 14 4 3 1 11 3 18 4 6 1 11 7 10 12 -1 6 14 16 33 23 24 9 34 19 34
33 0 15 4 18 17 14 9 -4 25 2 38 14 21 20 22 20 20 0 -1 -11 -4 -23 -8 -26
-10 -11 -8 -24 4 -24 5 0 7 5 3 12 -5 8 -2 9 10 5 10 -4 15 -3 11 3 -10 16 24
24 41 10 11 -10 18 -10 26 -2 17 17 38 15 38 -4 0 -13 3 -14 13 -5 8 6 23 12
35 14 25 4 42 17 22 17 -7 0 -10 3 -7 6 4 4 13 1 22 -6 8 -7 15 -9 15 -5 0 4
7 2 15 -5 20 -17 19 -6 -1 15 -15 15 -15 17 5 22 11 3 21 13 21 22 0 14 2 14
10 1 6 -9 10 -11 10 -3 0 7 7 10 15 7 8 -4 15 -2 15 3 0 5 15 8 34 7 29 -3 35
1 38 19 2 14 11 23 27 25 13 2 31 10 38 18 8 8 21 14 28 14 8 0 18 6 22 14 4
7 32 40 60 73 70 80 93 109 93 120 -1 4 -51 44 -111 88 -308 223 -468 404
-613 693 -147 294 -216 641 -216 1091 0 116 -2 136 -17 147 -22 16 -33 17 -33
3 0 -5 3 -8 8 -6 18 11 36 -33 20 -49 -7 -7 -12 9 -9 29 0 4 -8 7 -20 7 -15 0
-19 5 -15 15 3 8 2 14 -2 14 -4 -1 -18 -1 -32 0 -17 1 -21 4 -12 10 9 5 2 8
-19 9 -24 1 -29 -2 -20 -11 7 -7 15 -12 19 -12 4 0 18 -8 32 -18 19 -13 21
-17 7 -17 -9 0 -17 4 -17 9 0 5 -13 12 -29 16 -16 3 -35 13 -41 20 -9 11 -17
12 -30 5 -14 -8 -20 -6 -23 8 -3 11 -5 9 -6 -8 -1 -19 -3 -22 -11 -10 -7 12
-13 12 -33 1 -25 -13 -52 -7 -42 9 3 5 -6 7 -20 4 -14 -2 -25 0 -25 6 0 6 -4
8 -10 5 -5 -3 -10 1 -10 9 0 9 -7 16 -16 16 -11 0 -14 -5 -10 -16 4 -10 2 -14
-6 -11 -7 2 -12 9 -11 15 1 6 -6 6 -22 -1 -13 -7 -22 -14 -20 -17 2 -3 -8 -6
-21 -6 -13 -1 -24 2 -24 7 0 4 -8 5 -17 2 -12 -5 -15 -2 -10 10 8 21 -10 32
-27 17 -11 -8 -15 -8 -19 2 -4 11 -6 10 -6 0 -1 -7 -5 -10 -11 -7 -13 8 -52
-19 -42 -31 4 -4 -1 -3 -10 5 -9 7 -14 19 -11 27 3 8 0 14 -6 14 -6 0 -11 -7
-11 -15 0 -17 -17 -20 -22 -4 -2 7 -12 7 -31 0 -22 -9 -27 -8 -27 5 0 8 5 12
10 9 15 -9 12 4 -3 20 -9 8 -19 10 -28 4 -11 -7 -10 -9 6 -9 16 0 17 -2 6 -12
-11 -11 -14 -10 -18 0 -3 7 -12 20 -21 28 -14 15 -16 15 -24 -5 -11 -30 -15
-26 -10 8 2 16 -1 31 -6 35 -6 4 -8 -2 -5 -15 5 -19 4 -20 -16 -10 -12 7 -19
16 -16 22 4 5 -1 9 -10 9 -12 0 -15 -6 -10 -19 3 -11 0 -23 -6 -27 -8 -4 -9
-3 -5 4 10 16 -10 49 -37 63 l-22 11 23 -21z m342 -121 c0 -5 -2 -10 -4 -10
-3 0 -8 5 -11 10 -3 6 -1 10 4 10 6 0 11 -4 11 -10z m245 -20 c3 -5 -3 -10
-14 -10 -12 0 -21 5 -21 10 0 6 6 10 14 10 8 0 18 -4 21 -10z m-75 -44 c0 -3
-4 -8 -10 -11 -5 -3 -10 -1 -10 4 0 6 5 11 10 11 6 0 10 -2 10 -4z m1216
-2184 c-9 -9 -37 8 -31 18 5 8 11 7 21 -1 8 -6 12 -14 10 -17z m-86 -22 c0 -5
-5 -10 -11 -10 -5 0 -7 5 -4 10 3 6 8 10 11 10 2 0 4 -4 4 -10z m-20 -49 c0
-4 -6 -8 -14 -8 -8 0 -12 6 -9 14 5 13 23 9 23 -6z m-130 -25 c0 -2 -6 -9 -14
-15 -11 -9 -16 -9 -22 0 -4 8 -3 9 4 5 7 -4 12 -2 12 3 0 6 5 11 10 11 6 0 10
-2 10 -4z m-155 -35 c-3 -6 -11 -11 -16 -11 -5 0 -4 6 3 14 14 16 24 13 13 -3z
m-40 -3 c5 4 5 2 1 -5 -8 -14 -36 -6 -36 9 0 7 5 6 13 -1 8 -6 18 -7 22 -3z
m133 5 c-10 -2 -15 -10 -11 -19 6 -15 -12 -20 -21 -5 -3 5 -16 7 -29 5 -20 -4
-20 -4 -2 5 11 4 23 7 27 5 4 -3 9 0 13 6 3 5 14 9 23 9 16 -1 16 -2 0 -6z
m-553 -83 c3 -5 -1 -10 -9 -10 -9 0 -16 5 -16 10 0 6 4 10 9 10 6 0 13 -4 16
-10z m95 -11 c0 -6 -4 -7 -10 -4 -5 3 -10 11 -10 16 0 6 5 7 10 4 6 -3 10 -11
10 -16z m-42 -16 c-5 -6 -16 -9 -24 -6 -23 8 -16 21 10 19 18 -1 22 -4 14 -13z
m-361 -68 c-9 -7 -13 -16 -9 -20 4 -5 1 -5 -7 0 -12 7 -11 10 2 20 9 7 13 16
9 20 -4 5 -1 5 7 0 12 -7 11 -10 -2 -20z"/>
<path d="M8675 8369 c-4 -6 -4 -13 -1 -16 3 -4 6 -1 6 6 0 7 5 9 12 5 7 -4 8
-3 4 4 -9 15 -13 15 -21 1z"/>
<path d="M8987 8358 c-10 -11 -16 -22 -13 -26 6 -6 35 27 36 41 0 10 -2 8 -23
-15z"/>
<path d="M8800 8351 c0 -23 16 -36 25 -21 3 6 -1 17 -9 26 -15 14 -16 14 -16
-5z"/>
<path d="M9054 8340 c0 -13 4 -16 10 -10 7 7 7 13 0 20 -6 6 -10 3 -10 -10z"/>
<path d="M9012 8326 c1 -10 8 -17 13 -17 15 1 12 24 -3 29 -9 3 -13 -2 -10
-12z"/>
<path d="M9250 8320 c0 -5 5 -10 11 -10 5 0 7 5 4 10 -3 6 -8 10 -11 10 -2 0
-4 -4 -4 -10z"/>
<path d="M10082 6030 c0 -14 2 -19 5 -12 2 6 2 18 0 25 -3 6 -5 1 -5 -13z"/>
<path d="M10001 6004 c0 -11 3 -14 6 -6 3 7 2 16 -1 19 -3 4 -6 -2 -5 -13z"/>
<path d="M9876 5942 c-2 -4 -1 -14 4 -22 7 -11 9 -9 7 8 -1 24 -3 26 -11 14z"/>
<path d="M9540 5884 c0 -2 10 -8 21 -15 17 -8 20 -8 17 2 -4 11 -38 23 -38 13z"/>
<path d="M9486 5842 c-3 -5 1 -9 9 -9 8 0 15 4 15 9 0 4 -4 8 -9 8 -6 0 -12
-4 -15 -8z"/>
<path d="M9116 5821 c-8 -13 4 -41 17 -41 8 0 8 3 0 11 -6 6 -9 18 -6 25 6 16
-3 19 -11 5z"/>
<path d="M9468 5803 c7 -3 16 -2 19 1 4 3 -2 6 -13 5 -11 0 -14 -3 -6 -6z"/>
<path d="M8990 5755 c-7 -9 -11 -18 -8 -20 3 -3 11 1 18 10 7 9 11 18 8 20 -3
3 -11 -1 -18 -10z"/>
<path d="M9030 5502 c0 -5 7 -15 15 -22 8 -7 15 -8 15 -2 0 5 -7 15 -15 22 -8
7 -15 8 -15 2z"/>
<path d="M9069 5445 c14 -30 40 -61 41 -50 0 6 -12 24 -26 40 -14 17 -21 21
-15 10z"/>
<path d="M10016 4443 c-6 -14 -5 -15 5 -6 7 7 10 15 7 18 -3 3 -9 -2 -12 -12z"/>
<path d="M12878 10943 c7 -3 16 -2 19 1 4 3 -2 6 -13 5 -11 0 -14 -3 -6 -6z"/>
<path d="M12912 10945 c7 -7 289 -7 296 0 3 3 -64 5 -148 5 -84 0 -151 -2
-148 -5z"/>
<path d="M12598 10393 c-42 -49 -211 -239 -377 -423 -165 -184 -301 -338 -301
-342 0 -4 57 -6 128 -5 l127 2 -2 -980 c-1 -539 1 -995 4 -1012 l5 -33 174 0
c145 0 176 3 180 15 5 13 8 13 21 0 18 -18 23 -18 47 0 18 13 18 16 2 40 -18
28 -13 50 10 41 8 -3 14 1 14 9 0 24 -16 25 -35 2 -16 -18 -20 -19 -23 -6 -4
19 -46 41 -66 33 -15 -6 -30 22 -16 31 11 7 40 -5 40 -17 0 -6 9 -8 20 -5 11
3 18 2 15 -3 -3 -4 2 -13 9 -19 17 -14 29 0 20 22 -3 8 -1 18 5 22 6 3 11 1
11 -5 0 -6 5 -8 10 -5 15 9 12 25 -5 25 -16 0 -19 9 -9 34 3 9 10 13 15 10 5
-3 6 2 3 10 -3 9 -10 16 -14 16 -5 0 -12 9 -15 20 -4 11 -10 18 -15 15 -5 -3
-11 -1 -14 4 -13 20 16 21 43 2 38 -28 41 -27 40 12 -1 30 -1 30 -8 7 l-7 -25
-22 34 c-11 19 -19 38 -16 43 3 4 1 8 -5 8 -15 0 -23 -18 -11 -25 16 -10 12
-28 -5 -21 -9 3 -15 0 -15 -9 0 -8 -4 -15 -10 -15 -17 0 -12 13 54 151 36 74
72 161 80 193 18 69 22 196 7 244 -5 18 -9 33 -9 35 1 1 -2 12 -6 25 -5 14 -3
29 4 37 10 12 9 15 -3 15 -16 0 -32 44 -22 60 4 6 1 10 -6 10 -8 0 -10 24 -7
88 4 69 11 102 37 161 44 103 48 162 21 296 -30 151 -25 231 23 347 20 47 42
115 48 151 13 71 8 92 -66 286 -43 112 -53 200 -36 322 7 46 14 101 17 122 3
20 1 37 -4 37 -4 0 -42 -39 -84 -87z m-36 -288 c0 -5 -5 -11 -11 -13 -6 -2
-11 4 -11 13 0 9 5 15 11 13 6 -2 11 -8 11 -13z m-94 -92 c-5 -25 -28 -28 -28
-4 0 12 6 21 16 21 9 0 14 -7 12 -17z m166 -135 c-25 -84 -85 -158 -125 -158
-29 0 -22 26 13 51 18 13 26 25 19 27 -15 5 -49 -25 -67 -60 -8 -16 -14 -57
-14 -102 0 -69 2 -75 22 -78 40 -6 29 -24 -14 -23 -24 0 -54 -4 -68 -8 -25 -9
-25 -8 3 15 26 21 29 31 37 118 15 171 60 240 157 240 41 0 44 -2 37 -22z
m-293 -59 c63 -14 89 -38 89 -84 0 -59 -55 -70 -109 -21 -37 33 -67 116 -41
116 5 0 32 -5 61 -11z m-18 -412 c3 -8 1 -20 -4 -28 -11 -19 -32 2 -23 24 7
20 20 22 27 4z m275 -25 c3 -16 -2 -22 -17 -22 -24 0 -35 15 -27 36 9 23 40
13 44 -14z m-148 -27 c0 -8 -7 -15 -15 -15 -8 0 -15 7 -15 15 0 8 7 15 15 15
8 0 15 -7 15 -15z m77 -92 c7 -18 -29 -53 -56 -53 -10 0 -30 14 -47 31 l-29
32 35 -6 c19 -3 44 -2 55 3 29 13 35 12 42 -7z m-180 -68 c3 -9 3 -18 1 -21
-9 -9 -38 8 -38 22 0 19 29 18 37 -1z m278 -122 c-3 -16 -16 -46 -28 -68 -36
-64 -127 -112 -127 -67 -1 15 -2 15 -16 -3 -11 -15 -14 -42 -12 -109 3 -87 4
-90 28 -97 15 -4 -2 -7 -45 -7 -43 0 -60 3 -45 7 24 7 25 11 28 91 3 74 1 82
-12 70 -39 -32 -121 18 -145 89 -15 45 -6 54 41 47 51 -8 95 -31 108 -56 15
-28 27 -25 35 10 15 67 84 119 159 120 37 0 38 -1 31 -27z m-95 -373 c0 -5 -4
-10 -10 -10 -5 0 -10 5 -10 10 0 6 5 10 10 10 6 0 10 -4 10 -10z m-190 -10 c0
-5 -4 -10 -10 -10 -5 0 -10 5 -10 10 0 6 5 10 10 10 6 0 10 -4 10 -10z m138
-69 c3 -8 -1 -12 -9 -9 -7 2 -15 10 -17 17 -3 8 1 12 9 9 7 -2 15 -10 17 -17z
m-118 -55 c0 -2 3 -11 6 -20 5 -13 -1 -16 -29 -16 -41 0 -55 14 -30 29 18 10
53 15 53 7z m140 -259 c0 -33 -6 -46 -36 -74 -20 -19 -43 -32 -50 -29 -11 4
-14 -12 -14 -79 l0 -85 35 0 c67 0 34 -17 -42 -22 -43 -3 -87 -9 -98 -14 -18
-7 -18 -6 -6 9 7 9 28 19 47 23 31 6 34 9 34 43 0 20 3 68 7 106 6 63 5 69
-10 57 -9 -8 -14 -19 -11 -27 8 -21 -9 -25 -41 -9 -40 20 -66 57 -72 105 -5
37 -4 39 21 39 40 0 93 -25 106 -51 l13 -23 14 28 c8 15 28 36 46 46 40 25 57
12 57 -43z m-50 -352 c0 -8 -4 -15 -9 -15 -13 0 -22 16 -14 24 11 11 23 6 23
-9z m-131 -21 c-9 -11 -15 -12 -23 -4 -8 8 -7 13 4 20 20 12 33 1 19 -16z
m235 -68 c-1 -12 3 -15 16 -11 20 6 36 -10 20 -20 -6 -4 -8 -11 -4 -16 10 -17
-5 -59 -22 -59 -8 0 -12 5 -8 11 4 8 -1 9 -16 4 -13 -4 -20 -3 -17 2 3 5 -7 8
-23 5 -20 -3 -32 -13 -41 -35 -7 -17 -14 -26 -16 -20 -6 17 39 86 47 73 5 -7
11 -6 20 5 11 13 11 18 1 25 -10 6 -9 13 4 34 19 29 41 30 39 2z"/>
<path d="M12520 7850 c0 -5 5 -10 11 -10 5 0 8 -4 5 -8 -6 -10 11 -38 19 -31
7 8 -16 59 -27 59 -4 0 -8 -4 -8 -10z"/>
<path d="M12880 9995 c-16 -19 -9 -49 12 -53 20 -4 40 30 32 52 -8 20 -28 21
-44 1z"/>
<path d="M13020 9869 c-15 -27 -6 -49 19 -49 23 0 45 34 37 56 -8 21 -44 17
-56 -7z"/>
<path d="M12915 9726 c-10 -14 -15 -33 -11 -41 9 -23 35 -18 48 10 9 21 9 29
-4 42 -15 14 -18 13 -33 -11z"/>
<path d="M13015 9586 c-18 -27 -12 -66 10 -66 17 0 47 47 43 68 -5 27 -35 26
-53 -2z"/>
<path d="M12872 9451 c-21 -13 -26 -66 -7 -81 15 -12 19 -12 31 5 26 36 8 96
-24 76z"/>
<path d="M12991 9271 c-41 -41 -34 -135 9 -124 45 12 68 94 34 127 -19 20 -20
20 -43 -3z"/>
<path d="M12838 9173 c-22 -24 -23 -43 -3 -43 18 0 28 21 23 46 -3 14 -5 14
-20 -3z"/>
<path d="M13137 9063 c-13 -12 -7 -33 8 -33 8 0 15 9 15 20 0 20 -11 26 -23
13z"/>
<path d="M12993 8938 c-87 -96 -52 -190 37 -100 39 39 48 68 34 106 -9 23 -47
20 -71 -6z"/>
<path d="M12132 8675 c0 -16 2 -22 5 -12 2 9 2 23 0 30 -3 6 -5 -1 -5 -18z"/>
<path d="M12660 8689 c0 -5 5 -7 10 -4 6 3 10 8 10 11 0 2 -4 4 -10 4 -5 0
-10 -5 -10 -11z"/>
<path d="M12131 8600 c0 -25 -4 -108 -7 -185 -3 -77 -2 -158 4 -180 8 -38 9
-36 16 45 4 47 3 148 -2 225 -5 77 -10 120 -11 95z"/>
<path d="M12994 8324 c-22 -32 -9 -79 21 -79 30 0 52 47 37 79 -15 33 -37 33
-58 0z"/>
<path d="M12795 8050 c-17 -33 -7 -70 20 -70 23 0 48 46 41 75 -9 35 -42 33
-61 -5z"/>
<path d="M12640 7976 c0 -2 8 -10 18 -17 15 -13 16 -12 3 4 -13 16 -21 21 -21
13z"/>
<path d="M13031 7954 c-32 -41 -57 -129 -45 -162 33 -93 146 59 120 162 -9 35
-48 35 -75 0z"/>
<path d="M11030 7879 c0 -5 5 -7 10 -4 6 3 10 8 10 11 0 2 -4 4 -10 4 -5 0
-10 -5 -10 -11z"/>
<path d="M10816 7861 c-3 -5 1 -14 9 -21 12 -10 15 -10 15 3 0 19 -16 31 -24
18z"/>
<path d="M10765 7430 c3 -5 8 -10 11 -10 2 0 4 5 4 10 0 6 -5 10 -11 10 -5 0
-7 -4 -4 -10z"/>
<path d="M12016 7414 c-3 -9 -11 -12 -17 -8 -8 4 -9 3 -5 -5 6 -9 11 -9 23 1
9 7 19 12 22 11 13 -3 11 5 -3 10 -8 3 -17 -1 -20 -9z"/>
<path d="M12010 7351 c0 -10 7 -21 15 -25 13 -5 14 -2 4 15 -8 15 -8 19 0 15
6 -4 11 -2 11 3 0 6 -7 11 -15 11 -8 0 -15 -9 -15 -19z"/>
<path d="M12084 7295 c-18 -14 -18 -14 4 -8 12 3 22 9 22 14 0 12 -3 11 -26
-6z"/>
<path d="M12130 7288 c-12 -22 -12 -22 6 -6 10 10 15 20 12 24 -4 3 -12 -5
-18 -18z"/>
<path d="M12163 7270 c-2 -23 18 -42 35 -31 9 5 6 13 -11 29 -22 20 -23 21
-24 2z"/>
<path d="M11575 7200 c-3 -5 -2 -10 4 -10 5 0 13 5 16 10 3 6 2 10 -4 10 -5 0
-13 -4 -16 -10z"/>
<path d="M11860 7189 c0 -5 5 -7 10 -4 6 3 10 8 10 11 0 2 -4 4 -10 4 -5 0
-10 -5 -10 -11z"/>
<path d="M11748 7163 c7 -3 16 -2 19 1 4 3 -2 6 -13 5 -11 0 -14 -3 -6 -6z"/>
<path d="M11823 7163 c9 -2 25 -2 35 0 9 3 1 5 -18 5 -19 0 -27 -2 -17 -5z"/>
<path d="M11898 7163 c6 -2 18 -2 25 0 6 3 1 5 -13 5 -14 0 -19 -2 -12 -5z"/>
<path d="M12980 7110 l-205 -6 233 -2 c143 -1 231 2 227 7 -3 6 -15 9 -28 8
-12 -1 -114 -4 -227 -7z"/>
<path d="M10212 8790 c0 -177 3 -253 9 -230 10 40 8 450 -2 477 -4 10 -7 -101
-7 -247z"/>
<path d="M10183 7905 c0 -22 2 -30 4 -17 2 12 2 30 0 40 -3 9 -5 -1 -4 -23z"/>
<path d="M9857 7854 c-10 -11 2 -24 17 -18 7 3 16 -2 19 -10 4 -9 13 -13 22
-10 8 3 15 1 15 -5 0 -14 -23 -14 -36 -1 -12 12 -44 3 -44 -12 0 -5 8 -7 19
-3 12 4 21 0 25 -11 4 -11 10 -13 19 -6 6 5 20 8 30 7 22 -4 21 4 -3 33 -11
13 -24 21 -30 17 -5 -3 -13 1 -16 9 -6 16 -26 21 -37 10z"/>
<path d="M9770 7817 c0 -21 3 -36 8 -33 4 2 7 -11 6 -30 -1 -24 2 -34 13 -34
29 0 53 21 53 46 0 14 -4 23 -9 20 -5 -4 -8 5 -6 19 1 16 -3 25 -11 25 -8 0
-14 6 -14 13 0 8 -4 7 -10 -3 -9 -13 -11 -13 -20 0 -7 11 -10 5 -10 -23z"/>
<path d="M9978 7833 c6 -2 18 -2 25 0 6 3 1 5 -13 5 -14 0 -19 -2 -12 -5z"/>
<path d="M10186 7805 c4 -8 8 -15 10 -15 2 0 4 7 4 15 0 8 -4 15 -10 15 -5 0
-7 -7 -4 -15z"/>
<path d="M10054 7779 c-3 -6 2 -19 12 -30 16 -17 16 -19 1 -19 -10 0 -17 4
-17 9 0 5 -6 11 -13 14 -10 4 -13 -2 -9 -19 3 -18 0 -24 -14 -24 -9 0 -14 3
-11 6 7 8 -31 44 -45 44 -5 0 -11 -7 -14 -15 -4 -8 -9 -13 -13 -10 -4 2 -8 -2
-8 -10 0 -20 20 -14 34 10 11 18 12 18 13 2 0 -11 4 -15 11 -11 8 5 10 -1 7
-20 -4 -19 0 -29 12 -36 10 -5 20 -6 24 -3 3 3 6 1 6 -5 0 -7 -6 -12 -13 -12
-16 0 -47 31 -47 47 0 6 -12 8 -27 6 -16 -2 -33 -5 -40 -5 -7 -1 -10 -5 -7 -9
2 -4 -2 -9 -8 -12 -10 -4 -11 -7 0 -18 17 -18 15 -34 -3 -19 -8 7 -15 19 -15
26 0 11 -4 12 -19 2 -16 -10 -17 -14 -5 -25 23 -24 16 -35 -11 -17 -14 9 -28
14 -31 11 -3 -3 -1 -34 6 -69 18 -103 22 -118 30 -118 5 0 7 -8 6 -17 -2 -10
3 -43 11 -73 13 -50 26 -82 69 -175 21 -45 90 -130 103 -127 6 1 11 -7 11 -17
0 -25 16 -36 23 -17 3 8 2 17 -4 20 -5 2 -4 3 3 2 7 -2 12 -9 10 -16 -1 -6 6
-14 17 -17 13 -3 18 -10 14 -20 -4 -10 -2 -14 8 -11 16 5 69 -50 69 -73 0 -10
7 -16 18 -15 9 0 16 -4 15 -11 -2 -7 15 -18 37 -24 21 -7 38 -17 37 -23 -1 -6
6 -10 16 -9 13 1 17 -4 13 -14 -5 -12 -1 -14 14 -10 23 6 23 6 10 -28 -10 -25
0 -64 14 -57 3 1 15 2 27 2 15 0 19 -5 15 -15 -3 -9 0 -15 10 -15 8 0 13 -4
10 -8 -2 -4 4 -8 14 -8 15 0 17 3 7 15 -10 12 -9 13 9 3 12 -6 24 -8 28 -5 3
3 6 1 6 -6 0 -9 8 -11 28 -6 15 4 44 7 65 6 32 -2 40 2 44 20 5 19 8 20 17 6
10 -13 16 -13 45 -1 18 7 30 18 26 24 -3 5 -2 10 4 10 5 0 13 -4 16 -10 10
-16 39 -11 58 10 17 20 37 27 37 12 0 -4 -5 -13 -12 -20 -9 -9 -4 -9 22 -2 42
12 46 17 21 25 -28 9 -26 20 3 20 13 0 24 -2 24 -5 -2 -23 4 -37 17 -37 8 0
12 4 9 8 -2 4 1 11 7 14 6 4 13 -2 16 -15 4 -16 8 -18 14 -9 4 8 3 16 -3 20
-6 4 -8 14 -5 24 4 9 11 13 17 10 5 -3 10 3 10 14 0 12 7 21 15 21 12 0 13 -4
6 -18 -7 -14 -6 -19 4 -19 7 0 11 7 8 14 -7 17 47 10 58 -8 4 -6 12 -8 18 -5
15 10 14 27 -1 25 -22 -2 -56 12 -202 84 -366 180 -484 313 -614 693 -23 67
-42 130 -42 142 0 11 -3 23 -7 25 -10 6 -10 -64 0 -79 10 -16 -4 -54 -19 -54
-8 0 -14 5 -14 11 0 5 5 7 10 4 17 -11 11 7 -7 21 -17 13 -17 15 0 25 9 5 15
15 11 20 -3 6 -14 0 -25 -12 -10 -12 -20 -17 -20 -11 -3 27 -4 31 -12 38 -4 5
-12 2 -17 -6 -8 -13 -10 -12 -10 2 0 9 5 18 11 20 6 2 -3 16 -20 30 -18 17
-33 23 -37 17z m46 -35 c0 -2 -9 0 -20 6 -11 6 -20 13 -20 16 0 2 9 0 20 -6
11 -6 20 -13 20 -16z m-153 -80 c-2 -15 0 -28 8 -30 6 -3 12 -12 12 -21 0 -13
-3 -12 -14 3 -10 14 -16 16 -21 7 -5 -7 -8 5 -7 27 0 27 4 40 14 40 9 0 12 -8
8 -26z m123 6 c0 -5 -4 -10 -10 -10 -5 0 -10 5 -10 10 0 6 5 10 10 10 6 0 10
-4 10 -10z m60 -10 c0 -5 -2 -10 -4 -10 -3 0 -8 5 -11 10 -3 6 -1 10 4 10 6 0
11 -4 11 -10z m-150 -10 c0 -5 -2 -10 -4 -10 -3 0 -8 5 -11 10 -3 6 -1 10 4
10 6 0 11 -4 11 -10z m-145 -40 c-3 -5 2 -10 11 -10 14 0 15 -3 7 -11 -16 -16
-44 -4 -37 16 3 8 10 15 16 15 5 0 6 -4 3 -10z m105 -20 c0 -5 -2 -10 -4 -10
-3 0 -8 5 -11 10 -3 6 -1 10 4 10 6 0 11 -4 11 -10z m50 -10 c0 -5 -2 -10 -4
-10 -3 0 -8 5 -11 10 -3 6 -1 10 4 10 6 0 11 -4 11 -10z m190 -600 c12 -7 10
-9 -8 -7 -12 0 -22 5 -22 9 0 11 12 10 30 -2z m35 -61 c4 -6 13 -8 21 -5 8 3
14 -1 14 -9 0 -25 -17 -25 -40 0 -13 14 -18 25 -12 25 6 0 14 -5 17 -11z m142
-95 c-3 -3 -12 -4 -19 -1 -8 3 -5 6 6 6 11 1 17 -2 13 -5z m3 -74 c0 -5 -2
-10 -4 -10 -3 0 -8 5 -11 10 -3 6 -1 10 4 10 6 0 11 -4 11 -10z"/>
<path d="M10135 7740 c-3 -5 -1 -10 4 -10 6 0 11 5 11 10 0 6 -2 10 -4 10 -3
0 -8 -4 -11 -10z"/>
<path d="M9838 7713 c12 -2 22 -9 22 -14 0 -6 5 -7 10 -4 19 12 10 21 -22 22
-20 0 -24 -1 -10 -4z"/>
<path d="M10650 7046 c73 -63 273 -166 320 -165 8 0 -10 10 -40 23 -98 41
-194 93 -258 140 -79 58 -89 59 -22 2z"/>
<path d="M10115 6950 c3 -5 8 -10 11 -10 2 0 4 5 4 10 0 6 -5 10 -11 10 -5 0
-7 -4 -4 -10z"/>
<path d="M10960 6756 c0 -2 8 -10 18 -17 15 -13 16 -12 3 4 -13 16 -21 21 -21
13z"/>
<path d="M11045 6733 c-15 -23 -15 -25 -2 -15 9 8 21 11 27 7 12 -7 13 5 1 23
-6 10 -13 6 -26 -15z"/>
<path d="M11436 6741 c-3 -5 0 -11 7 -14 8 -3 14 1 14 9 0 16 -13 19 -21 5z"/>
<path d="M11480 6735 c0 -8 2 -15 4 -15 2 0 6 7 10 15 3 8 1 15 -4 15 -6 0
-10 -7 -10 -15z"/>
<path d="M11510 6741 c0 -5 8 -12 18 -14 13 -4 13 -5 -4 -6 -12 0 -27 -8 -34
-16 -12 -14 -7 -19 13 -16 5 1 6 -3 2 -9 -4 -6 -13 -5 -25 2 -11 7 -20 10 -22
8 -2 -3 -14 -18 -28 -34 -14 -16 -18 -25 -10 -21 13 8 13 7 1 -8 -17 -21 -32
-22 -25 -2 4 10 0 15 -10 15 -12 0 -15 -6 -11 -22 3 -13 -1 -32 -9 -43 -14
-18 -15 -18 -16 -2 0 9 5 17 12 17 6 0 8 3 5 6 -4 4 -13 1 -22 -6 -8 -7 -21
-10 -29 -7 -8 3 -20 -1 -26 -9 -13 -14 -4 -19 28 -15 6 1 12 -5 12 -14 0 -9
-5 -13 -10 -10 -6 3 -13 -1 -16 -9 -3 -9 -10 -13 -15 -10 -5 3 -9 -2 -9 -10 0
-16 -10 -20 -40 -17 -13 2 -13 0 -1 -8 8 -5 20 -7 28 -4 7 3 13 0 13 -6 0 -6
-5 -11 -11 -11 -6 0 -9 -7 -5 -15 3 -9 -3 -19 -17 -27 l-22 -12 25 -7 c14 -4
180 -5 370 -2 341 4 366 7 354 37 -3 7 5 12 16 12 24 0 25 -4 5 -26 -13 -14
-12 -16 5 -16 10 0 17 3 14 7 -2 4 6 9 17 12 13 4 18 10 14 18 -6 9 -1 10 20
5 24 -6 27 -5 22 13 -3 14 -1 18 10 14 8 -3 12 -12 8 -20 -3 -10 -1 -13 9 -10
7 3 19 0 26 -6 10 -9 11 -9 6 0 -3 6 -2 15 4 18 6 4 9 1 8 -5 -4 -18 29 -21
43 -4 8 10 8 14 0 14 -6 0 -11 5 -11 11 0 6 5 7 13 2 19 -12 47 -14 47 -3 0 6
9 10 20 10 11 0 19 5 18 12 -2 6 13 21 33 32 20 12 34 27 32 34 -3 6 0 12 6
12 6 0 11 6 11 14 0 16 34 31 49 22 11 -7 9 13 -3 33 -7 12 -11 10 -18 -9 -10
-28 -19 -22 -11 8 4 16 11 21 23 17 13 -4 20 1 25 15 3 11 11 20 16 20 5 0 7
11 3 25 -4 16 -2 25 6 25 6 0 8 -5 4 -12 -6 -10 -4 -10 7 -2 8 6 21 14 29 17
8 3 -211 6 -487 6 -309 1 -503 -2 -503 -8z m927 -17 c-3 -3 -12 -4 -19 -1 -8
3 -5 6 6 6 11 1 17 -2 13 -5z m-887 -23 c0 -5 -7 -11 -14 -14 -10 -4 -13 -1
-9 9 6 15 23 19 23 5z m-247 -228 c-3 -7 -6 -13 -8 -13 -2 0 -5 6 -8 13 -3 8
1 14 8 14 7 0 11 -6 8 -14z"/>
<path d="M12479 6713 c-8 -9 -9 -14 -2 -10 6 4 13 1 16 -5 3 -7 4 -3 4 10 -1
26 -1 26 -18 5z"/>
<path d="M11420 6700 c0 -5 5 -10 10 -10 6 0 10 5 10 10 0 6 -4 10 -10 10 -5
0 -10 -4 -10 -10z"/>
<path d="M10994 6658 c-4 -7 -4 -10 1 -6 4 4 15 2 24 -5 14 -11 14 -10 2 6
-16 20 -18 21 -27 5z"/>
<path d="M11335 6620 c3 -5 8 -10 11 -10 2 0 4 5 4 10 0 6 -5 10 -11 10 -5 0
-7 -4 -4 -10z"/>
<path d="M11210 6555 c0 -5 5 -17 10 -25 5 -8 10 -10 10 -5 0 6 -5 17 -10 25
-5 8 -10 11 -10 5z"/>
<path d="M11135 6541 c-3 -5 -1 -12 5 -16 5 -3 10 1 10 9 0 18 -6 21 -15 7z"/>
<path d="M11240 6541 c0 -5 6 -13 13 -19 10 -8 13 -6 14 9 1 10 -5 19 -13 19
-8 0 -14 -4 -14 -9z"/>
<path d="M12215 6440 c-3 -5 -1 -10 4 -10 6 0 11 5 11 10 0 6 -2 10 -4 10 -3
0 -8 -4 -11 -10z"/>
<path d="M12049 6419 c-7 -4 -10 -11 -7 -14 9 -9 68 4 68 15 0 10 -44 10 -61
-1z"/>
<path d="M12168 6413 c6 -2 18 -2 25 0 6 3 1 5 -13 5 -14 0 -19 -2 -12 -5z"/>
<path d="M11358 6343 c7 -3 16 -2 19 1 4 3 -2 6 -13 5 -11 0 -14 -3 -6 -6z"/>
<path d="M15241 7777 c-6 -8 -7 -17 -3 -21 4 -4 -8 -6 -27 -3 -24 4 -31 3 -23
-5 6 -6 8 -16 5 -23 -4 -11 -11 -11 -38 1 -30 12 -34 12 -29 -1 4 -8 15 -15
26 -15 10 0 17 -4 13 -9 -3 -5 2 -17 11 -26 9 -9 13 -19 10 -23 -4 -3 -11 0
-16 8 -8 13 -10 12 -10 -2 0 -11 -6 -16 -19 -13 -14 3 -18 -1 -14 -16 3 -11
10 -22 16 -26 5 -3 7 -1 4 4 -4 6 -1 13 7 16 10 4 12 0 9 -14 -3 -10 -11 -19
-17 -19 -18 0 -57 -48 -46 -55 6 -4 10 -2 10 2 0 5 9 9 20 10 11 1 20 -3 20
-8 0 -6 -4 -8 -9 -5 -11 7 -20 -14 -14 -31 7 -18 23 -16 23 3 0 8 5 12 10 9 6
-4 8 -12 4 -18 -3 -7 1 -4 9 6 8 9 18 17 23 17 4 0 3 -5 -3 -11 -6 -6 -9 -17
-7 -24 3 -7 -1 -13 -8 -12 -54 2 -440 -4 -437 -7 8 -8 1181 -14 1364 -7 l190
8 -200 1 c-215 2 -247 6 -238 28 3 8 10 11 17 7 6 -4 5 1 -3 10 -7 9 -10 17
-6 17 4 0 2 7 -5 15 -6 8 -8 20 -4 26 4 8 3 9 -5 5 -6 -4 -9 -19 -6 -33 l4
-26 -21 23 c-17 18 -18 24 -7 32 11 8 10 9 -3 4 -13 -4 -18 0 -18 14 0 11 -4
20 -9 20 -5 0 -7 -9 -4 -20 3 -11 0 -20 -6 -20 -6 0 -11 8 -11 18 0 39 -43 55
-66 25 -12 -16 -13 -15 -14 11 0 24 -2 27 -15 16 -18 -15 -28 -9 -19 13 3 10
12 13 22 9 14 -5 15 -4 2 10 -8 9 -18 14 -22 12 -3 -2 -9 2 -11 8 -3 8 -6 4
-7 -7 -2 -17 -3 -16 -9 5 l-7 24 -22 -22 -22 -22 -6 24 c-3 15 -11 23 -19 20
-7 -3 -16 -1 -20 5 -10 16 -28 13 -22 -4 10 -23 -8 -26 -31 -4 -12 11 -22 17
-22 14 0 -4 -7 1 -16 9 -8 9 -24 16 -35 16 -10 0 -18 5 -16 11 1 6 -5 14 -13
16 -9 3 -11 1 -5 -4 18 -14 16 -40 -4 -46 -14 -3 -17 0 -14 13 3 10 1 26 -4
34 -8 15 -11 15 -28 1 -17 -12 -17 -14 -2 -9 13 5 17 1 17 -17 0 -13 -4 -19
-8 -14 -4 6 -17 16 -30 23 -33 18 -42 -11 -11 -36 18 -15 20 -20 8 -27 -8 -5
-11 -5 -7 0 9 10 -28 39 -40 31 -4 -2 -7 8 -6 22 1 15 7 26 13 24 7 -1 10 2 6
8 -8 13 -10 13 -24 -3z m-15 -82 c-3 -9 -12 -12 -22 -8 -16 6 -16 7 2 14 10 4
13 8 7 8 -7 1 -13 6 -13 12 0 5 5 7 10 4 6 -3 11 0 11 7 1 7 3 5 6 -5 3 -10 2
-25 -1 -32z m206 13 c-10 -10 -44 0 -37 12 3 5 14 6 26 3 12 -3 17 -9 11 -15z
m183 -37 c3 -5 1 -12 -5 -16 -5 -3 -10 1 -10 9 0 18 6 21 15 7z m-380 -11 c3
-5 1 -10 -4 -10 -6 0 -11 5 -11 10 0 6 2 10 4 10 3 0 8 -4 11 -10z m510 -60
c3 -6 -1 -7 -9 -4 -18 7 -21 14 -7 14 6 0 13 -4 16 -10z m-540 -9 c-9 -8 -36
-10 -30 -2 2 4 11 8 20 8 8 0 13 -3 10 -6z m25 -112 c0 -3 -7 -6 -15 -6 -17 0
-17 0 -9 22 5 13 8 14 15 3 5 -7 9 -16 9 -19z m580 21 c0 -5 -2 -10 -4 -10 -3
0 -8 5 -11 10 -3 6 -1 10 4 10 6 0 11 -4 11 -10z"/>
<path d="M15137 7673 c3 -7 9 -10 14 -7 14 8 11 21 -5 21 -8 0 -12 -6 -9 -14z"/>
<path d="M15055 7560 c-3 -5 -1 -10 4 -10 6 0 11 5 11 10 0 6 -2 10 -4 10 -3
0 -8 -4 -11 -10z"/>
<path d="M14688 7463 c7 -3 16 -2 19 1 4 3 -2 6 -13 5 -11 0 -14 -3 -6 -6z"/>
<path d="M15730 6391 c0 -5 5 -13 10 -16 6 -3 10 -2 10 4 0 5 -4 13 -10 16 -5
3 -10 2 -10 -4z"/>
<path d="M14840 6360 c-85 -11 -159 -36 -228 -77 -78 -46 -68 -54 19 -15 138
62 162 67 329 67 136 0 164 -3 225 -23 223 -75 378 -216 471 -430 44 -102 60
-112 30 -20 -8 24 -14 50 -13 59 1 28 -53 127 -80 148 -16 12 -48 41 -73 64
-102 95 -173 141 -279 182 -132 50 -256 64 -401 45z"/>
<path d="M16130 6102 c-30 -10 -76 -77 -60 -87 5 -3 7 -12 4 -20 -8 -21 14
-55 36 -55 11 0 20 5 20 11 0 5 5 7 10 4 6 -4 19 -3 28 1 9 4 24 8 32 8 8 1
14 9 14 18 -1 10 1 16 5 14 4 -3 13 -1 21 5 10 6 11 9 3 9 -7 0 -13 12 -13 28
-1 29 -42 68 -61 56 -6 -3 -14 -2 -18 3 -3 6 -13 8 -21 5z"/>
<path d="M15756 5842 c-3 -5 8 -9 24 -9 17 0 30 4 30 9 0 4 -11 8 -24 8 -14 0
-27 -4 -30 -8z"/>
<path d="M15948 5833 c7 -3 16 -2 19 1 4 3 -2 6 -13 5 -11 0 -14 -3 -6 -6z"/>
<path d="M15755 5798 c-2 -7 -1 -29 3 -48 l8 -35 97 -3 97 -3 0 44 0 44 -61 7
c-94 9 -139 7 -144 -6z"/>
<path d="M15762 5633 l3 -48 98 -3 97 -3 0 51 0 50 -101 0 -100 0 3 -47z"/>
<path d="M15762 5488 l3 -53 74 -9 c103 -12 123 -1 119 62 l-3 47 -98 3 -98 3
3 -53z"/>
<path d="M15730 5388 c0 -4 55 -7 123 -7 143 2 137 6 -15 12 -60 2 -108 0
-108 -5z"/>
<path d="M14890 5954 c-8 -3 -34 -12 -57 -20 -24 -9 -43 -20 -43 -24 0 -5 17
-2 38 7 25 12 66 17 127 17 83 1 96 -2 157 -32 40 -20 82 -50 103 -75 39 -44
69 -96 62 -103 -2 -3 -11 10 -20 28 -17 35 -71 91 -123 126 -44 30 -148 55
-206 50 -63 -7 -166 -58 -218 -110 -66 -66 -83 -109 -88 -216 -4 -88 -3 -96
27 -157 72 -146 232 -227 391 -197 80 15 132 40 158 75 8 10 29 33 46 51 18
17 30 38 28 45 -3 8 0 11 6 7 14 -8 39 45 50 106 11 59 0 171 -22 220 -22 52
-115 142 -179 175 -42 21 -68 27 -137 30 -47 1 -92 0 -100 -3z m121 -185 c141
-48 183 -208 83 -318 -40 -45 -102 -66 -168 -59 -78 9 -108 45 -137 162 -21
84 33 181 117 211 48 17 62 18 105 4z m296 -151 c-3 -7 -5 -2 -5 12 0 14 2 19
5 13 2 -7 2 -19 0 -25z"/>
<path d="M14340 5555 c0 -8 4 -15 10 -15 5 0 7 7 4 15 -4 8 -8 15 -10 15 -2 0
-4 -7 -4 -15z"/>
<path d="M13265 5850 c-3 -5 -1 -10 5 -10 6 0 9 -4 5 -9 -3 -5 -1 -12 5 -16 5
-3 10 3 10 14 0 23 -16 36 -25 21z"/>
<path d="M13490 5140 c0 -5 5 -10 11 -10 5 0 7 5 4 10 -3 6 -8 10 -11 10 -2 0
-4 -4 -4 -10z"/>
<path d="M13466 5043 c-8 -9 13 -33 30 -33 8 0 11 -6 7 -15 -5 -13 -2 -14 21
-4 18 9 23 15 14 20 -7 4 -16 5 -20 3 -4 -3 -8 -1 -8 5 0 6 -7 7 -17 4 -10 -4
-14 -2 -9 5 7 12 -8 25 -18 15z"/>
<path d="M13469 4968 c-14 -47 -14 -81 -1 -85 6 -3 12 2 12 10 0 8 7 20 15 27
13 11 15 10 12 -1 -2 -8 -2 -11 0 -6 3 4 9 5 14 1 5 -3 9 0 9 5 0 6 -4 11 -10
11 -5 0 -19 9 -30 20 -11 11 -20 19 -21 18z"/>
<path d="M13490 4959 c0 -5 5 -7 10 -4 6 3 10 8 10 11 0 2 -4 4 -10 4 -5 0
-10 -5 -10 -11z"/>
<path d="M13542 4910 c0 -14 2 -19 5 -12 2 6 2 18 0 25 -3 6 -5 1 -5 -13z"/>
<path d="M13544 4459 c0 -20 11 -25 20 -10 3 5 0 13 -7 19 -10 8 -13 6 -13 -9z"/>
<path d="M13537 4393 c3 -7 6 -13 8 -13 2 0 5 6 8 13 3 8 -1 14 -8 14 -7 0
-11 -6 -8 -14z"/>
<path d="M13565 4180 c3 -5 11 -10 16 -10 6 0 7 5 4 10 -3 6 -11 10 -16 10 -6
0 -7 -4 -4 -10z"/>
<path d="M13540 3988 c0 -4 4 -8 9 -8 6 0 12 4 15 8 3 5 -1 9 -9 9 -8 0 -15
-4 -15 -9z"/>
<path d="M13540 3910 c0 -5 5 -10 11 -10 5 0 7 5 4 10 -3 6 -8 10 -11 10 -2 0
-4 -4 -4 -10z"/>
<path d="M13597 3534 c-27 -15 -35 -38 -17 -49 6 -3 10 -1 10 4 0 6 10 11 23
11 18 0 19 2 7 10 -13 9 -7 14 13 11 9 -1 9 16 -1 22 -4 3 -19 -1 -35 -9z"/>
<path d="M13700 3340 c-7 -14 -7 -20 0 -20 5 0 10 7 10 16 0 14 2 14 15 0 9
-8 23 -12 31 -9 14 5 12 8 -7 19 -32 18 -37 17 -49 -6z"/>
<path d="M16680 5650 c-41 -7 -80 -27 -80 -40 0 -5 -15 -23 -34 -41 -118 -107
-95 -309 44 -382 48 -25 63 -28 115 -24 144 11 249 127 231 255 -21 154 -143
257 -276 232z m86 -146 c89 -42 105 -152 30 -209 -51 -39 -109 -35 -151 9 -63
67 -55 164 17 199 42 21 62 21 104 1z"/>
<path d="M6721 10694 c0 -11 3 -14 6 -6 3 7 2 16 -1 19 -3 4 -6 -2 -5 -13z"/>
<path d="M6722 10600 c0 -14 2 -19 5 -12 2 6 2 18 0 25 -3 6 -5 1 -5 -13z"/>
<path d="M6722 10355 c0 -16 2 -22 5 -12 2 9 2 23 0 30 -3 6 -5 -1 -5 -18z"/>
<path d="M6722 10290 c0 -19 2 -27 5 -17 2 9 2 25 0 35 -3 9 -5 1 -5 -18z"/>
<path d="M6721 10144 c0 -11 3 -14 6 -6 3 7 2 16 -1 19 -3 4 -6 -2 -5 -13z"/>
<path d="M7053 10139 c-2 -23 3 -25 10 -4 4 8 3 16 -1 19 -4 3 -9 -4 -9 -15z"/>
<path d="M7049 10019 c-2 -243 3 -465 11 -473 5 -5 8 108 6 273 -1 154 -6 284
-9 288 -4 3 -7 -36 -8 -88z"/>
<path d="M7053 9511 c0 -11 5 -18 9 -15 4 3 5 11 1 19 -7 21 -12 19 -10 -4z"/>
<path d="M6715 8249 c-4 -6 -5 -12 -2 -15 2 -3 7 2 10 11 7 17 1 20 -8 4z"/>
<path d="M6915 6089 c-4 -6 -4 -13 -1 -16 3 -4 6 -1 6 6 0 7 5 9 12 5 7 -4 8
-3 4 4 -9 15 -13 15 -21 1z"/>
<path d="M19201 4383 c-1 -17 16 -25 25 -12 4 7 3 9 -4 5 -5 -3 -13 0 -15 6
-4 9 -6 10 -6 1z"/>
<path d="M19116 2952 c-3 -5 1 -9 9 -9 8 0 12 4 9 9 -3 4 -7 8 -9 8 -2 0 -6
-4 -9 -8z"/>
<path d="M7710 2346 c0 -2 7 -7 16 -10 8 -3 12 -2 9 4 -6 10 -25 14 -25 6z"/>
<path d="M8551 2238 c8 -15 13 -17 19 -8 6 9 12 9 31 -1 31 -17 57 -21 63 -11
3 5 0 9 -7 9 -7 0 -36 7 -65 16 -52 16 -52 16 -41 -5z"/>
<path d="M8492 2141 c-11 -7 -11 -9 0 -14 9 -3 15 1 15 9 0 8 -1 14 -1 14 -1
0 -7 -4 -14 -9z"/>
<path d="M12475 2120 c-3 -5 -1 -10 4 -10 6 0 11 5 11 10 0 6 -2 10 -4 10 -3
0 -8 -4 -11 -10z"/>
<path d="M12530 2120 c-9 -6 -10 -10 -3 -10 6 0 15 5 18 10 8 12 4 12 -15 0z"/>
<path d="M12556 2114 c-4 -9 -4 -32 0 -50 5 -30 4 -33 -15 -29 -18 3 -20 1
-11 -16 6 -10 13 -19 16 -19 3 0 2 5 -1 10 -3 6 1 10 9 10 9 0 16 -7 16 -15 0
-8 -6 -15 -14 -15 -8 0 -18 -5 -21 -10 -4 -7 3 -9 20 -6 24 5 27 2 23 -19 -4
-17 1 -27 18 -36 13 -6 21 -15 19 -19 -2 -3 9 -4 25 -2 21 3 32 -1 36 -12 3
-9 10 -13 15 -10 5 3 9 1 9 -4 0 -5 30 -11 68 -13 86 -5 2897 -4 2939 2 28 3
30 5 17 20 -16 18 -19 33 -3 24 6 -4 5 2 -2 13 -7 12 -22 25 -34 31 -19 9 -18
10 7 10 19 1 29 -5 33 -20 5 -16 9 -18 15 -9 4 7 15 10 24 7 8 -3 18 -1 22 5
4 7 3 8 -4 4 -7 -4 -12 -2 -12 3 0 6 -9 11 -21 11 -19 0 -19 1 -5 16 9 8 13
21 9 27 -5 8 -9 6 -11 -5 -4 -19 -22 -25 -22 -9 0 6 -12 3 -27 -5 -33 -17 -43
-18 -43 -3 0 5 4 8 9 5 5 -3 14 1 21 9 7 8 19 15 26 15 16 0 19 16 5 24 -5 3
-12 -1 -15 -10 -6 -16 -26 -11 -26 7 0 6 6 7 13 3 7 -5 6 0 -3 11 -8 10 -10
16 -3 12 8 -5 11 0 10 13 -1 10 -7 22 -14 24 -26 10 -13 28 16 24 17 -2 28 -1
25 4 -3 4 -713 8 -1579 8 -1441 0 -1573 -2 -1579 -16z m3094 -9 c0 -8 -7 -15
-15 -15 -16 0 -20 12 -8 23 11 12 23 8 23 -8z m-3045 -115 c-5 -8 -11 -8 -17
-2 -6 6 -7 16 -3 22 5 8 11 8 17 2 6 -6 7 -16 3 -22z"/>
<path d="M12505 2089 c4 -6 9 -8 13 -5 3 3 11 -2 19 -12 13 -15 13 -15 3 6 -6
12 -18 22 -26 22 -8 0 -12 -5 -9 -11z"/>
<path d="M8383 2072 c-1 -11 5 -18 17 -18 14 0 15 3 6 18 -6 10 -13 18 -16 18
-3 0 -6 -8 -7 -18z"/>
<path d="M15705 2079 c-11 -17 1 -21 15 -4 8 9 8 15 2 15 -6 0 -14 -5 -17 -11z"/>
<path d="M8415 2030 c-3 -5 1 -10 10 -10 9 0 13 5 10 10 -3 6 -8 10 -10 10 -2
0 -7 -4 -10 -10z"/>
<path d="M12582 1900 c0 -14 2 -19 5 -12 2 6 2 18 0 25 -3 6 -5 1 -5 -13z"/>
<path d="M17618 1903 c-16 -2 -28 -8 -28 -13 0 -5 14 -5 31 0 30 9 53 22 33
19 -5 -1 -21 -4 -36 -6z"/>
<path d="M17520 1880 c-28 -6 -26 -16 3 -11 4 1 19 2 32 3 13 1 21 6 19 10 -3
4 -8 7 -12 7 -4 -1 -23 -5 -42 -9z"/>
<path d="M17435 1860 c-13 -5 -14 -9 -5 -9 8 0 24 4 35 9 13 5 14 9 5 9 -8 0
-24 -4 -35 -9z"/>
<path d="M17230 1840 l-25 -8 28 -1 c15 -1 27 4 27 9 0 6 -1 10 -2 9 -2 -1
-14 -5 -28 -9z"/>
<path d="M15480 1829 c-15 -9 29 -13 109 -10 61 2 46 11 -17 10 -33 -1 -64 1
-69 4 -5 3 -15 2 -23 -4z"/>
<path d="M15810 1828 l-35 -6 37 1 c20 1 40 -2 44 -6 13 -12 51 -8 51 6 0 15
-37 17 -97 5z"/>
<path d="M15915 1831 c-3 -6 -2 -12 2 -14 8 -5 1236 -2 1265 3 9 2 15 7 12 11
-7 12 -1272 11 -1279 0z"/>
</g>
</svg>
